<?xml version="1.0" encoding="UTF-8"?><svg xmlns:svg="http://www.w3.org/2000/svg" xmlns="http://www.w3.org/2000/svg" xmlns:xlink="http://www.w3.org/1999/xlink" version="2.0" width="1200" height="460" ><style >
svg {
  font-family: Helvetica, Arial, sans-serif;
  font-size: 11px;
}
rect {
  stroke-linecap: butt;
  stroke-width: 3;
  stroke: #fff;
/*  stroke-opacity: 1; */
}
rect:hover {
  stroke: #fff;
/*  stroke-opacity: 1; /*
}
polygon { fill: #000; }</style><defs ><polygon id="ahead" points="0 0, -12 4, -12 -4" /><filter id="glow" x="0" y="0" ><feGaussianBlur in="SourceAlpha" stdDeviation="2" result="blurred" /><feFlood flood-color="#fff" /><feComposite operator="in" in2="blurred" /><feComponentTransfer ><feFuncA type="linear" slope="10" intercept="0" /></feComponentTransfer><feMerge ><feMergeNode /><feMergeNode in="SourceGraphic" /></feMerge></filter></defs><g ><text x="120.0" y="20.0" text-anchor="middle" alignment-baseline="middle" fill="#000" >c1</text><text x="360.0" y="20.0" text-anchor="middle" alignment-baseline="middle" fill="#000" >c2</text><text x="600.0" y="20.0" text-anchor="middle" alignment-baseline="middle" fill="#000" >c3</text><text x="840.0" y="20.0" text-anchor="middle" alignment-baseline="middle" fill="#000" >c4</text><text x="1080.0" y="20.0" text-anchor="middle" alignment-baseline="middle" fill="#000" >n0</text></g><g ><line stroke="#ccc" x1="120.0" y1="30.0" x2="120.0" y2="370.0" /><line stroke="#ccc" x1="360.0" y1="30.0" x2="360.0" y2="370.0" /><line stroke="#ccc" x1="600.0" y1="30.0" x2="600.0" y2="370.0" /><line stroke="#ccc" x1="840.0" y1="30.0" x2="840.0" y2="370.0" /><line stroke="#ccc" x1="1080.0" y1="30.0" x2="1080.0" y2="370.0" /></g><g ><g transform="translate(120.0 50.0) rotate(1.193489423982035) " ><rect x="0" y="-2.5" height="5" width="956.2083107326243" fill="#81BFFC" ><title >c1 → n0 {:type "topology", :topology {"n0" []}, :msg_id 1}</title></rect><use xlink:href="#ahead" x="960.2083107326243" y="0" /><text text-anchor="middle" x="480.10415536631217" y="-4" transform="" filter="url(#glow)" style="fill: #fff" >topology {:topology {"n0" []}}</text><text text-anchor="middle" x="480.10415536631217" y="-4" transform="" >topology {:topology {"n0" []}}</text></g><g transform="translate(1080.0 90.0) rotate(178.80651057601798) " ><rect x="0" y="-2.5" height="5" width="956.2083107326243" fill="#81BFFC" ><title >n0 → c1 {:in_reply_to 1, :type "topology_ok"}</title></rect><use xlink:href="#ahead" x="960.2083107326243" y="0" /><text text-anchor="middle" x="480.10415536631217" y="-4" transform="rotate(180 480.10415536631217 0)" filter="url(#glow)" style="fill: #fff" >topology_ok {}</text><text text-anchor="middle" x="480.10415536631217" y="-4" transform="rotate(180 480.10415536631217 0)" >topology_ok {}</text></g><g transform="translate(360.0 130.0) rotate(1.5911402711945872) " ><rect x="0" y="-2.5" height="5" width="716.2777242147642" fill="#81BFFC" ><title >c2 → n0 {:type "broadcast", :message 0, :msg_id 1}</title></rect><use xlink:href="#ahead" x="720.2777242147642" y="0" /><text text-anchor="middle" x="360.1388621073821" y="-4" transform="" filter="url(#glow)" style="fill: #fff" >broadcast {:message 0}</text><text text-anchor="middle" x="360.1388621073821" y="-4" transform="" >broadcast {:message 0}</text></g><g transform="translate(1080.0 170.0) rotate(178.4088597288054) " ><rect x="0" y="-2.5" height="5" width="716.2777242147642" fill="#81BFFC" ><title >n0 → c2 {:in_reply_to 1, :message 0, :msg_id 1, :type "broadcast_ok"}</title></rect><use xlink:href="#ahead" x="720.2777242147642" y="0" /><text text-anchor="middle" x="360.1388621073821" y="-4" transform="rotate(180 360.1388621073821 0)" filter="url(#glow)" style="fill: #fff" >broadcast_ok {:message 0}</text><text text-anchor="middle" x="360.1388621073821" y="-4" transform="rotate(180 360.1388621073821 0)" >broadcast_ok {:message 0}</text></g><g transform="translate(600.0 210.0) rotate(2.3859440303888126) " ><rect x="0" y="-2.5" height="5" width="476.41648597857255" fill="#81BFFC" ><title >c3 → n0 {:type "read", :msg_id 1}</title></rect><use xlink:href="#ahead" x="480.41648597857255" y="0" /><text text-anchor="middle" x="240.20824298928628" y="-4" transform="" filter="url(#glow)" style="fill: #fff" >read {}</text><text text-anchor="middle" x="240.20824298928628" y="-4" transform="" >read {}</text></g><g transform="translate(1080.0 250.0) rotate(177.6140559696112) " ><rect x="0" y="-2.5" height="5" width="476.41648597857255" fill="#81BFFC" ><title >n0 → c3 {:in_reply_to 1, :messages {}, :msg_id 1, :type "read_ok"}</title></rect><use xlink:href="#ahead" x="480.41648597857255" y="0" /><text text-anchor="middle" x="240.20824298928628" y="-4" transform="rotate(180 240.20824298928628 0)" filter="url(#glow)" style="fill: #fff" >read_ok {:messages {}}</text><text text-anchor="middle" x="240.20824298928628" y="-4" transform="rotate(180 240.20824298928628 0)" >read_ok {:messages {}}</text></g><g transform="translate(840.0 290.0) rotate(4.763641690726177) " ><rect x="0" y="-2.5" height="5" width="236.8318915758459" fill="#81BFFC" ><title >c4 → n0 {:type "read", :msg_id 1}</title></rect><use xlink:href="#ahead" x="240.8318915758459" y="0" /><text text-anchor="middle" x="120.41594578792295" y="-4" transform="" filter="url(#glow)" style="fill: #fff" >read {}</text><text text-anchor="middle" x="120.41594578792295" y="-4" transform="" >read {}</text></g><g transform="translate(1080.0 330.0) rotate(175.2363583092738) " ><rect x="0" y="-2.5" height="5" width="236.8318915758459" fill="#81BFFC" ><title >n0 → c4 {:in_reply_to 1, :messages {}, :msg_id 1, :type "read_ok"}</title></rect><use xlink:href="#ahead" x="240.8318915758459" y="0" /><text text-anchor="middle" x="120.41594578792295" y="-4" transform="rotate(180 120.41594578792295 0)" filter="url(#glow)" style="fill: #fff" >read_ok {:messages {}}</text><text text-anchor="middle" x="120.41594578792295" y="-4" transform="rotate(180 120.41594578792295 0)" >read_ok {:messages {}}</text></g></g></svg>