<?xml version="1.0" encoding="UTF-8"?><svg xmlns:svg="http://www.w3.org/2000/svg" xmlns="http://www.w3.org/2000/svg" xmlns:xlink="http://www.w3.org/1999/xlink" version="2.0" width="1200" height="2820" ><style >
svg {
  font-family: Helvetica, Arial, sans-serif;
  font-size: 11px;
}
rect {
  stroke-linecap: butt;
  stroke-width: 3;
  stroke: #fff;
/*  stroke-opacity: 1; */
}
rect:hover {
  stroke: #fff;
/*  stroke-opacity: 1; /*
}
polygon { fill: #000; }</style><defs ><polygon id="ahead" points="0 0, -12 4, -12 -4" /><filter id="glow" x="0" y="0" ><feGaussianBlur in="SourceAlpha" stdDeviation="2" result="blurred" /><feFlood flood-color="#fff" /><feComposite operator="in" in2="blurred" /><feComponentTransfer ><feFuncA type="linear" slope="10" intercept="0" /></feComponentTransfer><feMerge ><feMergeNode /><feMergeNode in="SourceGraphic" /></feMerge></filter></defs><g ><text x="40.0" y="20.0" text-anchor="middle" alignment-baseline="middle" fill="#000" >c5</text><text x="40.0" y="1020.0" text-anchor="middle" alignment-baseline="middle" fill="#aaa" >c5</text><text x="40.0" y="2020.0" text-anchor="middle" alignment-baseline="middle" fill="#aaa" >c5</text><text x="120.0" y="20.0" text-anchor="middle" alignment-baseline="middle" fill="#000" >c6</text><text x="120.0" y="1020.0" text-anchor="middle" alignment-baseline="middle" fill="#aaa" >c6</text><text x="120.0" y="2020.0" text-anchor="middle" alignment-baseline="middle" fill="#aaa" >c6</text><text x="200.0" y="20.0" text-anchor="middle" alignment-baseline="middle" fill="#000" >c7</text><text x="200.0" y="1020.0" text-anchor="middle" alignment-baseline="middle" fill="#aaa" >c7</text><text x="200.0" y="2020.0" text-anchor="middle" alignment-baseline="middle" fill="#aaa" >c7</text><text x="280.0" y="20.0" text-anchor="middle" alignment-baseline="middle" fill="#000" >c8</text><text x="280.0" y="1020.0" text-anchor="middle" alignment-baseline="middle" fill="#aaa" >c8</text><text x="280.0" y="2020.0" text-anchor="middle" alignment-baseline="middle" fill="#aaa" >c8</text><text x="360.0" y="20.0" text-anchor="middle" alignment-baseline="middle" fill="#000" >c9</text><text x="360.0" y="1020.0" text-anchor="middle" alignment-baseline="middle" fill="#aaa" >c9</text><text x="360.0" y="2020.0" text-anchor="middle" alignment-baseline="middle" fill="#aaa" >c9</text><text x="440.0" y="20.0" text-anchor="middle" alignment-baseline="middle" fill="#000" >c10</text><text x="440.0" y="1020.0" text-anchor="middle" alignment-baseline="middle" fill="#aaa" >c10</text><text x="440.0" y="2020.0" text-anchor="middle" alignment-baseline="middle" fill="#aaa" >c10</text><text x="520.0" y="20.0" text-anchor="middle" alignment-baseline="middle" fill="#000" >c11</text><text x="520.0" y="1020.0" text-anchor="middle" alignment-baseline="middle" fill="#aaa" >c11</text><text x="520.0" y="2020.0" text-anchor="middle" alignment-baseline="middle" fill="#aaa" >c11</text><text x="600.0" y="20.0" text-anchor="middle" alignment-baseline="middle" fill="#000" >c12</text><text x="600.0" y="1020.0" text-anchor="middle" alignment-baseline="middle" fill="#aaa" >c12</text><text x="600.0" y="2020.0" text-anchor="middle" alignment-baseline="middle" fill="#aaa" >c12</text><text x="680.0" y="20.0" text-anchor="middle" alignment-baseline="middle" fill="#000" >c13</text><text x="680.0" y="1020.0" text-anchor="middle" alignment-baseline="middle" fill="#aaa" >c13</text><text x="680.0" y="2020.0" text-anchor="middle" alignment-baseline="middle" fill="#aaa" >c13</text><text x="760.0" y="20.0" text-anchor="middle" alignment-baseline="middle" fill="#000" >c14</text><text x="760.0" y="1020.0" text-anchor="middle" alignment-baseline="middle" fill="#aaa" >c14</text><text x="760.0" y="2020.0" text-anchor="middle" alignment-baseline="middle" fill="#aaa" >c14</text><text x="840.0" y="20.0" text-anchor="middle" alignment-baseline="middle" fill="#000" >n0</text><text x="840.0" y="1020.0" text-anchor="middle" alignment-baseline="middle" fill="#aaa" >n0</text><text x="840.0" y="2020.0" text-anchor="middle" alignment-baseline="middle" fill="#aaa" >n0</text><text x="920.0" y="20.0" text-anchor="middle" alignment-baseline="middle" fill="#000" >n1</text><text x="920.0" y="1020.0" text-anchor="middle" alignment-baseline="middle" fill="#aaa" >n1</text><text x="920.0" y="2020.0" text-anchor="middle" alignment-baseline="middle" fill="#aaa" >n1</text><text x="1000.0" y="20.0" text-anchor="middle" alignment-baseline="middle" fill="#000" >n2</text><text x="1000.0" y="1020.0" text-anchor="middle" alignment-baseline="middle" fill="#aaa" >n2</text><text x="1000.0" y="2020.0" text-anchor="middle" alignment-baseline="middle" fill="#aaa" >n2</text><text x="1080.0" y="20.0" text-anchor="middle" alignment-baseline="middle" fill="#000" >n3</text><text x="1080.0" y="1020.0" text-anchor="middle" alignment-baseline="middle" fill="#aaa" >n3</text><text x="1080.0" y="2020.0" text-anchor="middle" alignment-baseline="middle" fill="#aaa" >n3</text><text x="1160.0" y="20.0" text-anchor="middle" alignment-baseline="middle" fill="#000" >n4</text><text x="1160.0" y="1020.0" text-anchor="middle" alignment-baseline="middle" fill="#aaa" >n4</text><text x="1160.0" y="2020.0" text-anchor="middle" alignment-baseline="middle" fill="#aaa" >n4</text></g><g ><line stroke="#ccc" x1="40.0" y1="30.0" x2="40.0" y2="2730.0" /><line stroke="#ccc" x1="120.0" y1="30.0" x2="120.0" y2="2730.0" /><line stroke="#ccc" x1="200.0" y1="30.0" x2="200.0" y2="2730.0" /><line stroke="#ccc" x1="280.0" y1="30.0" x2="280.0" y2="2730.0" /><line stroke="#ccc" x1="360.0" y1="30.0" x2="360.0" y2="2730.0" /><line stroke="#ccc" x1="440.0" y1="30.0" x2="440.0" y2="2730.0" /><line stroke="#ccc" x1="520.0" y1="30.0" x2="520.0" y2="2730.0" /><line stroke="#ccc" x1="600.0" y1="30.0" x2="600.0" y2="2730.0" /><line stroke="#ccc" x1="680.0" y1="30.0" x2="680.0" y2="2730.0" /><line stroke="#ccc" x1="760.0" y1="30.0" x2="760.0" y2="2730.0" /><line stroke="#ccc" x1="840.0" y1="30.0" x2="840.0" y2="2730.0" /><line stroke="#ccc" x1="920.0" y1="30.0" x2="920.0" y2="2730.0" /><line stroke="#ccc" x1="1000.0" y1="30.0" x2="1000.0" y2="2730.0" /><line stroke="#ccc" x1="1080.0" y1="30.0" x2="1080.0" y2="2730.0" /><line stroke="#ccc" x1="1160.0" y1="30.0" x2="1160.0" y2="2730.0" /></g><g ><g transform="translate(200.0 50.0) rotate(7.125016348901799) " ><rect x="0" y="-2.5" height="5" width="802.2257748298549" fill="#81BFFC" ><title >c7 → n2 {:type "topology", :topology {"n0" ["n3" "n1"], "n1" ["n4" "n2" "n0"], "n2" ["n1"], "n3" ["n0" "n4"], "n4" ["n1" "n3"]}, :msg_id 1}</title></rect><use xlink:href="#ahead" x="806.2257748298549" y="0" /><text text-anchor="middle" x="403.11288741492746" y="-4" transform="" filter="url(#glow)" style="fill: #fff" >topology {:topology {"n0" ["n3" "n1"], "n1" ["n…</text><text text-anchor="middle" x="403.11288741492746" y="-4" transform="" >topology {:topology {"n0" ["n3" "n1"], "n1" ["n…</text></g><g transform="translate(280.0 90.0) rotate(5.710593137499643) " ><rect x="0" y="-2.5" height="5" width="799.9900496896712" fill="#81BFFC" ><title >c8 → n3 {:type "topology", :topology {"n0" ["n3" "n1"], "n1" ["n4" "n2" "n0"], "n2" ["n1"], "n3" ["n0" "n4"], "n4" ["n1" "n3"]}, :msg_id 1}</title></rect><use xlink:href="#ahead" x="803.9900496896712" y="0" /><text text-anchor="middle" x="401.9950248448356" y="-4" transform="" filter="url(#glow)" style="fill: #fff" >topology {:topology {"n0" ["n3" "n1"], "n1" ["n…</text><text text-anchor="middle" x="401.9950248448356" y="-4" transform="" >topology {:topology {"n0" ["n3" "n1"], "n1" ["n…</text></g><g transform="translate(40.0 110.0) rotate(5.710593137499643) " ><rect x="0" y="-2.5" height="5" width="799.9900496896712" fill="#81BFFC" ><title >c5 → n0 {:type "topology", :topology {"n0" ["n3" "n1"], "n1" ["n4" "n2" "n0"], "n2" ["n1"], "n3" ["n0" "n4"], "n4" ["n1" "n3"]}, :msg_id 1}</title></rect><use xlink:href="#ahead" x="803.9900496896712" y="0" /><text text-anchor="middle" x="401.9950248448356" y="-4" transform="" filter="url(#glow)" style="fill: #fff" >topology {:topology {"n0" ["n3" "n1"], "n1" ["n…</text><text text-anchor="middle" x="401.9950248448356" y="-4" transform="" >topology {:topology {"n0" ["n3" "n1"], "n1" ["n…</text></g><g transform="translate(360.0 70.0) rotate(9.926245506651705) " ><rect x="0" y="-2.5" height="5" width="808.1576201698781" fill="#81BFFC" ><title >c9 → n4 {:type "topology", :topology {"n0" ["n3" "n1"], "n1" ["n4" "n2" "n0"], "n2" ["n1"], "n3" ["n0" "n4"], "n4" ["n1" "n3"]}, :msg_id 1}</title></rect><use xlink:href="#ahead" x="812.1576201698781" y="0" /><text text-anchor="middle" x="406.07881008493905" y="-4" transform="" filter="url(#glow)" style="fill: #fff" >topology {:topology {"n0" ["n3" "n1"], "n1" ["n…</text><text text-anchor="middle" x="406.07881008493905" y="-4" transform="" >topology {:topology {"n0" ["n3" "n1"], "n1" ["n…</text></g><g transform="translate(120.0 130.0) rotate(7.125016348901799) " ><rect x="0" y="-2.5" height="5" width="802.2257748298549" fill="#81BFFC" ><title >c6 → n1 {:type "topology", :topology {"n0" ["n3" "n1"], "n1" ["n4" "n2" "n0"], "n2" ["n1"], "n3" ["n0" "n4"], "n4" ["n1" "n3"]}, :msg_id 1}</title></rect><use xlink:href="#ahead" x="806.2257748298549" y="0" /><text text-anchor="middle" x="403.11288741492746" y="-4" transform="" filter="url(#glow)" style="fill: #fff" >topology {:topology {"n0" ["n3" "n1"], "n1" ["n…</text><text text-anchor="middle" x="403.11288741492746" y="-4" transform="" >topology {:topology {"n0" ["n3" "n1"], "n1" ["n…</text></g><g transform="translate(1160.0 270.0) rotate(174.28940686250036) " ><rect x="0" y="-2.5" height="5" width="799.9900496896712" fill="#81BFFC" ><title >n4 → c9 {:in_reply_to 1, :msg_id 1, :type "topology_ok"}</title></rect><use xlink:href="#ahead" x="803.9900496896712" y="0" /><text text-anchor="middle" x="401.9950248448356" y="-4" transform="rotate(180 401.9950248448356 0)" filter="url(#glow)" style="fill: #fff" >topology_ok {}</text><text text-anchor="middle" x="401.9950248448356" y="-4" transform="rotate(180 401.9950248448356 0)" >topology_ok {}</text></g><g transform="translate(840.0 290.0) rotate(174.28940686250036) " ><rect x="0" y="-2.5" height="5" width="799.9900496896712" fill="#81BFFC" ><title >n0 → c5 {:in_reply_to 1, :msg_id 1, :type "topology_ok"}</title></rect><use xlink:href="#ahead" x="803.9900496896712" y="0" /><text text-anchor="middle" x="401.9950248448356" y="-4" transform="rotate(180 401.9950248448356 0)" filter="url(#glow)" style="fill: #fff" >topology_ok {}</text><text text-anchor="middle" x="401.9950248448356" y="-4" transform="rotate(180 401.9950248448356 0)" >topology_ok {}</text></g><g transform="translate(1000.0 310.0) rotate(174.28940686250036) " ><rect x="0" y="-2.5" height="5" width="799.9900496896712" fill="#81BFFC" ><title >n2 → c7 {:in_reply_to 1, :msg_id 1, :type "topology_ok"}</title></rect><use xlink:href="#ahead" x="803.9900496896712" y="0" /><text text-anchor="middle" x="401.9950248448356" y="-4" transform="rotate(180 401.9950248448356 0)" filter="url(#glow)" style="fill: #fff" >topology_ok {}</text><text text-anchor="middle" x="401.9950248448356" y="-4" transform="rotate(180 401.9950248448356 0)" >topology_ok {}</text></g><g transform="translate(920.0 250.0) rotate(168.69006752597983) " ><rect x="0" y="-2.5" height="5" width="811.8431221748456" fill="#81BFFC" ><title >n1 → c6 {:in_reply_to 1, :msg_id 1, :type "topology_ok"}</title></rect><use xlink:href="#ahead" x="815.8431221748456" y="0" /><text text-anchor="middle" x="407.9215610874228" y="-4" transform="rotate(180 407.9215610874228 0)" filter="url(#glow)" style="fill: #fff" >topology_ok {}</text><text text-anchor="middle" x="407.9215610874228" y="-4" transform="rotate(180 407.9215610874228 0)" >topology_ok {}</text></g><g transform="translate(1080.0 330.0) rotate(172.8749836510982) " ><rect x="0" y="-2.5" height="5" width="802.2257748298549" fill="#81BFFC" ><title >n3 → c8 {:in_reply_to 1, :msg_id 1, :type "topology_ok"}</title></rect><use xlink:href="#ahead" x="806.2257748298549" y="0" /><text text-anchor="middle" x="403.11288741492746" y="-4" transform="rotate(180 403.11288741492746 0)" filter="url(#glow)" style="fill: #fff" >topology_ok {}</text><text text-anchor="middle" x="403.11288741492746" y="-4" transform="rotate(180 403.11288741492746 0)" >topology_ok {}</text></g><g transform="translate(440.0 450.0) rotate(2.862405226111748) " ><rect x="0" y="-2.5" height="5" width="396.4996878900157" fill="#81BFFC" ><title >c10 → n0 {:type "broadcast", :message 0, :msg_id 1}</title></rect><use xlink:href="#ahead" x="400.4996878900157" y="0" /><text text-anchor="middle" x="200.24984394500785" y="-4" transform="" filter="url(#glow)" style="fill: #fff" >broadcast {:message 0}</text><text text-anchor="middle" x="200.24984394500785" y="-4" transform="" >broadcast {:message 0}</text></g><g transform="translate(840.0 490.0) rotate(4.763641690726177) " ><rect x="0" y="-2.5" height="5" width="236.8318915758459" fill="#000" ><title >n0 → n3 {:data_id "c10_1", :message 0, :msg_id 1, :seen_nodes ["n0" "n3"], :type "gossip"}</title></rect><use xlink:href="#ahead" x="240.8318915758459" y="0" /><text text-anchor="middle" x="120.41594578792295" y="-4" transform="" filter="url(#glow)" style="fill: #fff" >gossip {:data_id "c10_1", :message 0, :seen_nod…</text><text text-anchor="middle" x="120.41594578792295" y="-4" transform="" >gossip {:data_id "c10_1", :message 0, :seen_nod…</text></g><g transform="translate(840.0 550.0) rotate(177.13759477388828) " ><rect x="0" y="-2.5" height="5" width="396.4996878900157" fill="#81BFFC" ><title >n0 → c10 {:in_reply_to 1, :msg_id 4, :type "broadcast_ok"}</title></rect><use xlink:href="#ahead" x="400.4996878900157" y="0" /><text text-anchor="middle" x="200.24984394500785" y="-4" transform="rotate(180 200.24984394500785 0)" filter="url(#glow)" style="fill: #fff" >broadcast_ok {}</text><text text-anchor="middle" x="200.24984394500785" y="-4" transform="rotate(180 200.24984394500785 0)" >broadcast_ok {}</text></g><g transform="translate(1080.0 590.0) rotate(14.036243467926479) " ><rect x="0" y="-2.5" height="5" width="78.46211251235322" fill="#000" ><title >n3 → n4 {:data_id "c10_1", :message 0, :msg_id 1, :seen_nodes ["n3" "n0" "n4"], :type "gossip"}</title></rect><use xlink:href="#ahead" x="82.46211251235322" y="0" /><text text-anchor="middle" x="41.23105625617661" y="-4" transform="" filter="url(#glow)" style="fill: #fff" >gossip {:data_id "c10_1", :message 0, :seen_nod…</text><text text-anchor="middle" x="41.23105625617661" y="-4" transform="" >gossip {:data_id "c10_1", :message 0, :seen_nod…</text></g><g transform="translate(1080.0 630.0) rotate(175.2363583092738) " ><rect x="0" y="-2.5" height="5" width="236.8318915758459" fill="#000" ><title >n3 → n0 {:already_seen false, :in_reply_to 1, :msg_id 3, :seen_nodes ["n3" "n0" "n4"], :type "gossip_ok"}</title></rect><use xlink:href="#ahead" x="240.8318915758459" y="0" /><text text-anchor="middle" x="120.41594578792295" y="-4" transform="rotate(180 120.41594578792295 0)" filter="url(#glow)" style="fill: #fff" >gossip_ok {:already_seen false, :seen_nodes ["n…</text><text text-anchor="middle" x="120.41594578792295" y="-4" transform="rotate(180 120.41594578792295 0)" >gossip_ok {:already_seen false, :seen_nodes ["n…</text></g><g transform="translate(1160.0 690.0) rotate(165.96375653207352) " ><rect x="0" y="-2.5" height="5" width="78.46211251235322" fill="#000" ><title >n4 → n3 {:already_seen false, :in_reply_to 1, :msg_id 3, :seen_nodes ["n4" "n3" "n0" "n1"], :type "gossip_ok"}</title></rect><use xlink:href="#ahead" x="82.46211251235322" y="0" /><text text-anchor="middle" x="41.23105625617661" y="-4" transform="rotate(180 41.23105625617661 0)" filter="url(#glow)" style="fill: #fff" >gossip_ok {:already_seen false, :seen_nodes ["n…</text><text text-anchor="middle" x="41.23105625617661" y="-4" transform="rotate(180 41.23105625617661 0)" >gossip_ok {:already_seen false, :seen_nodes ["n…</text></g><g transform="translate(520.0 730.0) rotate(2.3859440303888126) " ><rect x="0" y="-2.5" height="5" width="476.41648597857255" fill="#81BFFC" ><title >c11 → n2 {:type "read", :msg_id 1}</title></rect><use xlink:href="#ahead" x="480.41648597857255" y="0" /><text text-anchor="middle" x="240.20824298928628" y="-4" transform="" filter="url(#glow)" style="fill: #fff" >read {}</text><text text-anchor="middle" x="240.20824298928628" y="-4" transform="" >read {}</text></g><g transform="translate(1000.0 770.0) rotate(177.6140559696112) " ><rect x="0" y="-2.5" height="5" width="476.41648597857255" fill="#81BFFC" ><title >n2 → c11 {:in_reply_to 1, :messages [], :msg_id 2, :type "read_ok"}</title></rect><use xlink:href="#ahead" x="480.41648597857255" y="0" /><text text-anchor="middle" x="240.20824298928628" y="-4" transform="rotate(180 240.20824298928628 0)" filter="url(#glow)" style="fill: #fff" >read_ok {:messages []}</text><text text-anchor="middle" x="240.20824298928628" y="-4" transform="rotate(180 240.20824298928628 0)" >read_ok {:messages []}</text></g><g transform="translate(600.0 810.0) rotate(2.3859440303888126) " ><rect x="0" y="-2.5" height="5" width="476.41648597857255" fill="#81BFFC" ><title >c12 → n3 {:type "broadcast", :message 1, :msg_id 1}</title></rect><use xlink:href="#ahead" x="480.41648597857255" y="0" /><text text-anchor="middle" x="240.20824298928628" y="-4" transform="" filter="url(#glow)" style="fill: #fff" >broadcast {:message 1}</text><text text-anchor="middle" x="240.20824298928628" y="-4" transform="" >broadcast {:message 1}</text></g><g transform="translate(1080.0 850.0) rotate(175.2363583092738) " ><rect x="0" y="-2.5" height="5" width="236.8318915758459" fill="#000" ><title >n3 → n0 {:data_id "c12_1", :message 1, :msg_id 2, :seen_nodes ["n3" "n0"], :type "gossip"}</title></rect><use xlink:href="#ahead" x="240.8318915758459" y="0" /><text text-anchor="middle" x="120.41594578792295" y="-4" transform="rotate(180 120.41594578792295 0)" filter="url(#glow)" style="fill: #fff" >gossip {:data_id "c12_1", :message 1, :seen_nod…</text><text text-anchor="middle" x="120.41594578792295" y="-4" transform="rotate(180 120.41594578792295 0)" >gossip {:data_id "c12_1", :message 1, :seen_nod…</text></g><g transform="translate(1080.0 890.0) rotate(14.036243467926479) " ><rect x="0" y="-2.5" height="5" width="78.46211251235322" fill="#000" ><title >n3 → n4 {:data_id "c12_1", :message 1, :msg_id 3, :seen_nodes ["n3" "n0" "n4"], :type "gossip"}</title></rect><use xlink:href="#ahead" x="82.46211251235322" y="0" /><text text-anchor="middle" x="41.23105625617661" y="-4" transform="" filter="url(#glow)" style="fill: #fff" >gossip {:data_id "c12_1", :message 1, :seen_nod…</text><text text-anchor="middle" x="41.23105625617661" y="-4" transform="" >gossip {:data_id "c12_1", :message 1, :seen_nod…</text></g><g transform="translate(1080.0 930.0) rotate(177.6140559696112) " ><rect x="0" y="-2.5" height="5" width="476.41648597857255" fill="#81BFFC" ><title >n3 → c12 {:in_reply_to 1, :msg_id 6, :type "broadcast_ok"}</title></rect><use xlink:href="#ahead" x="480.41648597857255" y="0" /><text text-anchor="middle" x="240.20824298928628" y="-4" transform="rotate(180 240.20824298928628 0)" filter="url(#glow)" style="fill: #fff" >broadcast_ok {}</text><text text-anchor="middle" x="240.20824298928628" y="-4" transform="rotate(180 240.20824298928628 0)" >broadcast_ok {}</text></g><g transform="translate(840.0 1010.0) rotate(4.763641690726177) " ><rect x="0" y="-2.5" height="5" width="236.8318915758459" fill="#000" ><title >n0 → n3 {:already_seen false, :in_reply_to 2, :msg_id 6, :seen_nodes ["n0" "n3" "n1"], :type "gossip_ok"}</title></rect><use xlink:href="#ahead" x="240.8318915758459" y="0" /><text text-anchor="middle" x="120.41594578792295" y="-4" transform="" filter="url(#glow)" style="fill: #fff" >gossip_ok {:already_seen false, :seen_nodes ["n…</text><text text-anchor="middle" x="120.41594578792295" y="-4" transform="" >gossip_ok {:already_seen false, :seen_nodes ["n…</text></g><g transform="translate(1160.0 1050.0) rotate(165.96375653207352) " ><rect x="0" y="-2.5" height="5" width="78.46211251235322" fill="#000" ><title >n4 → n3 {:already_seen false, :in_reply_to 3, :msg_id 5, :seen_nodes ["n4" "n3" "n0" "n1"], :type "gossip_ok"}</title></rect><use xlink:href="#ahead" x="82.46211251235322" y="0" /><text text-anchor="middle" x="41.23105625617661" y="-4" transform="rotate(180 41.23105625617661 0)" filter="url(#glow)" style="fill: #fff" >gossip_ok {:already_seen false, :seen_nodes ["n…</text><text text-anchor="middle" x="41.23105625617661" y="-4" transform="rotate(180 41.23105625617661 0)" >gossip_ok {:already_seen false, :seen_nodes ["n…</text></g><g transform="translate(680.0 1090.0) rotate(2.3859440303888126) " ><rect x="0" y="-2.5" height="5" width="476.41648597857255" fill="#81BFFC" ><title >c13 → n4 {:type "read", :msg_id 1}</title></rect><use xlink:href="#ahead" x="480.41648597857255" y="0" /><text text-anchor="middle" x="240.20824298928628" y="-4" transform="" filter="url(#glow)" style="fill: #fff" >read {}</text><text text-anchor="middle" x="240.20824298928628" y="-4" transform="" >read {}</text></g><g transform="translate(1160.0 1130.0) rotate(177.6140559696112) " ><rect x="0" y="-2.5" height="5" width="476.41648597857255" fill="#81BFFC" ><title >n4 → c13 {:in_reply_to 1, :messages [0 1], :msg_id 6, :type "read_ok"}</title></rect><use xlink:href="#ahead" x="480.41648597857255" y="0" /><text text-anchor="middle" x="240.20824298928628" y="-4" transform="rotate(180 240.20824298928628 0)" filter="url(#glow)" style="fill: #fff" >read_ok {:messages [0 1]}</text><text text-anchor="middle" x="240.20824298928628" y="-4" transform="rotate(180 240.20824298928628 0)" >read_ok {:messages [0 1]}</text></g><g transform="translate(440.0 1170.0) rotate(2.862405226111748) " ><rect x="0" y="-2.5" height="5" width="396.4996878900157" fill="#81BFFC" ><title >c10 → n0 {:type "broadcast", :message 2, :msg_id 2}</title></rect><use xlink:href="#ahead" x="400.4996878900157" y="0" /><text text-anchor="middle" x="200.24984394500785" y="-4" transform="" filter="url(#glow)" style="fill: #fff" >broadcast {:message 2}</text><text text-anchor="middle" x="200.24984394500785" y="-4" transform="" >broadcast {:message 2}</text></g><g transform="translate(840.0 1210.0) rotate(4.763641690726177) " ><rect x="0" y="-2.5" height="5" width="236.8318915758459" fill="#000" ><title >n0 → n3 {:data_id "c10_2", :message 2, :msg_id 4, :seen_nodes ["n0" "n3"], :type "gossip"}</title></rect><use xlink:href="#ahead" x="240.8318915758459" y="0" /><text text-anchor="middle" x="120.41594578792295" y="-4" transform="" filter="url(#glow)" style="fill: #fff" >gossip {:data_id "c10_2", :message 2, :seen_nod…</text><text text-anchor="middle" x="120.41594578792295" y="-4" transform="" >gossip {:data_id "c10_2", :message 2, :seen_nod…</text></g><g transform="translate(840.0 1270.0) rotate(177.13759477388828) " ><rect x="0" y="-2.5" height="5" width="396.4996878900157" fill="#81BFFC" ><title >n0 → c10 {:in_reply_to 2, :msg_id 9, :type "broadcast_ok"}</title></rect><use xlink:href="#ahead" x="400.4996878900157" y="0" /><text text-anchor="middle" x="200.24984394500785" y="-4" transform="rotate(180 200.24984394500785 0)" filter="url(#glow)" style="fill: #fff" >broadcast_ok {}</text><text text-anchor="middle" x="200.24984394500785" y="-4" transform="rotate(180 200.24984394500785 0)" >broadcast_ok {}</text></g><g transform="translate(1080.0 1310.0) rotate(14.036243467926479) " ><rect x="0" y="-2.5" height="5" width="78.46211251235322" fill="#000" ><title >n3 → n4 {:data_id "c10_2", :message 2, :msg_id 4, :seen_nodes ["n3" "n0" "n4"], :type "gossip"}</title></rect><use xlink:href="#ahead" x="82.46211251235322" y="0" /><text text-anchor="middle" x="41.23105625617661" y="-4" transform="" filter="url(#glow)" style="fill: #fff" >gossip {:data_id "c10_2", :message 2, :seen_nod…</text><text text-anchor="middle" x="41.23105625617661" y="-4" transform="" >gossip {:data_id "c10_2", :message 2, :seen_nod…</text></g><g transform="translate(1080.0 1350.0) rotate(175.2363583092738) " ><rect x="0" y="-2.5" height="5" width="236.8318915758459" fill="#000" ><title >n3 → n0 {:already_seen false, :in_reply_to 4, :msg_id 8, :seen_nodes ["n3" "n0" "n4"], :type "gossip_ok"}</title></rect><use xlink:href="#ahead" x="240.8318915758459" y="0" /><text text-anchor="middle" x="120.41594578792295" y="-4" transform="rotate(180 120.41594578792295 0)" filter="url(#glow)" style="fill: #fff" >gossip_ok {:already_seen false, :seen_nodes ["n…</text><text text-anchor="middle" x="120.41594578792295" y="-4" transform="rotate(180 120.41594578792295 0)" >gossip_ok {:already_seen false, :seen_nodes ["n…</text></g><g transform="translate(1160.0 1410.0) rotate(165.96375653207352) " ><rect x="0" y="-2.5" height="5" width="78.46211251235322" fill="#000" ><title >n4 → n3 {:already_seen false, :in_reply_to 4, :msg_id 8, :seen_nodes ["n4" "n3" "n0" "n1"], :type "gossip_ok"}</title></rect><use xlink:href="#ahead" x="82.46211251235322" y="0" /><text text-anchor="middle" x="41.23105625617661" y="-4" transform="rotate(180 41.23105625617661 0)" filter="url(#glow)" style="fill: #fff" >gossip_ok {:already_seen false, :seen_nodes ["n…</text><text text-anchor="middle" x="41.23105625617661" y="-4" transform="rotate(180 41.23105625617661 0)" >gossip_ok {:already_seen false, :seen_nodes ["n…</text></g><g transform="translate(440.0 1450.0) rotate(2.862405226111748) " ><rect x="0" y="-2.5" height="5" width="396.4996878900157" fill="#81BFFC" ><title >c10 → n0 {:type "broadcast", :message 3, :msg_id 3}</title></rect><use xlink:href="#ahead" x="400.4996878900157" y="0" /><text text-anchor="middle" x="200.24984394500785" y="-4" transform="" filter="url(#glow)" style="fill: #fff" >broadcast {:message 3}</text><text text-anchor="middle" x="200.24984394500785" y="-4" transform="" >broadcast {:message 3}</text></g><g transform="translate(840.0 1490.0) rotate(4.763641690726177) " ><rect x="0" y="-2.5" height="5" width="236.8318915758459" fill="#000" ><title >n0 → n3 {:data_id "c10_3", :message 3, :msg_id 6, :seen_nodes ["n0" "n3"], :type "gossip"}</title></rect><use xlink:href="#ahead" x="240.8318915758459" y="0" /><text text-anchor="middle" x="120.41594578792295" y="-4" transform="" filter="url(#glow)" style="fill: #fff" >gossip {:data_id "c10_3", :message 3, :seen_nod…</text><text text-anchor="middle" x="120.41594578792295" y="-4" transform="" >gossip {:data_id "c10_3", :message 3, :seen_nod…</text></g><g transform="translate(840.0 1550.0) rotate(177.13759477388828) " ><rect x="0" y="-2.5" height="5" width="396.4996878900157" fill="#81BFFC" ><title >n0 → c10 {:in_reply_to 3, :msg_id 12, :type "broadcast_ok"}</title></rect><use xlink:href="#ahead" x="400.4996878900157" y="0" /><text text-anchor="middle" x="200.24984394500785" y="-4" transform="rotate(180 200.24984394500785 0)" filter="url(#glow)" style="fill: #fff" >broadcast_ok {}</text><text text-anchor="middle" x="200.24984394500785" y="-4" transform="rotate(180 200.24984394500785 0)" >broadcast_ok {}</text></g><g transform="translate(1080.0 1590.0) rotate(14.036243467926479) " ><rect x="0" y="-2.5" height="5" width="78.46211251235322" fill="#000" ><title >n3 → n4 {:data_id "c10_3", :message 3, :msg_id 5, :seen_nodes ["n3" "n0" "n4"], :type "gossip"}</title></rect><use xlink:href="#ahead" x="82.46211251235322" y="0" /><text text-anchor="middle" x="41.23105625617661" y="-4" transform="" filter="url(#glow)" style="fill: #fff" >gossip {:data_id "c10_3", :message 3, :seen_nod…</text><text text-anchor="middle" x="41.23105625617661" y="-4" transform="" >gossip {:data_id "c10_3", :message 3, :seen_nod…</text></g><g transform="translate(1080.0 1630.0) rotate(175.2363583092738) " ><rect x="0" y="-2.5" height="5" width="236.8318915758459" fill="#000" ><title >n3 → n0 {:already_seen false, :in_reply_to 6, :msg_id 10, :seen_nodes ["n3" "n0" "n4"], :type "gossip_ok"}</title></rect><use xlink:href="#ahead" x="240.8318915758459" y="0" /><text text-anchor="middle" x="120.41594578792295" y="-4" transform="rotate(180 120.41594578792295 0)" filter="url(#glow)" style="fill: #fff" >gossip_ok {:already_seen false, :seen_nodes ["n…</text><text text-anchor="middle" x="120.41594578792295" y="-4" transform="rotate(180 120.41594578792295 0)" >gossip_ok {:already_seen false, :seen_nodes ["n…</text></g><g transform="translate(1160.0 1690.0) rotate(165.96375653207352) " ><rect x="0" y="-2.5" height="5" width="78.46211251235322" fill="#000" ><title >n4 → n3 {:already_seen false, :in_reply_to 5, :msg_id 10, :seen_nodes ["n4" "n3" "n0" "n1"], :type "gossip_ok"}</title></rect><use xlink:href="#ahead" x="82.46211251235322" y="0" /><text text-anchor="middle" x="41.23105625617661" y="-4" transform="rotate(180 41.23105625617661 0)" filter="url(#glow)" style="fill: #fff" >gossip_ok {:already_seen false, :seen_nodes ["n…</text><text text-anchor="middle" x="41.23105625617661" y="-4" transform="rotate(180 41.23105625617661 0)" >gossip_ok {:already_seen false, :seen_nodes ["n…</text></g><g transform="translate(760.0 1730.0) rotate(7.125016348901799) " ><rect x="0" y="-2.5" height="5" width="157.24515496597098" fill="#81BFFC" ><title >c14 → n1 {:type "broadcast", :message 4, :msg_id 1}</title></rect><use xlink:href="#ahead" x="161.24515496597098" y="0" /><text text-anchor="middle" x="80.62257748298549" y="-4" transform="" filter="url(#glow)" style="fill: #fff" >broadcast {:message 4}</text><text text-anchor="middle" x="80.62257748298549" y="-4" transform="" >broadcast {:message 4}</text></g><g transform="translate(920.0 1830.0) rotate(172.8749836510982) " ><rect x="0" y="-2.5" height="5" width="157.24515496597098" fill="#81BFFC" ><title >n1 → c14 {:in_reply_to 1, :msg_id 5, :type "broadcast_ok"}</title></rect><use xlink:href="#ahead" x="161.24515496597098" y="0" /><text text-anchor="middle" x="80.62257748298549" y="-4" transform="rotate(180 80.62257748298549 0)" filter="url(#glow)" style="fill: #fff" >broadcast_ok {}</text><text text-anchor="middle" x="80.62257748298549" y="-4" transform="rotate(180 80.62257748298549 0)" >broadcast_ok {}</text></g><g transform="translate(520.0 1870.0) rotate(2.3859440303888126) " ><rect x="0" y="-2.5" height="5" width="476.41648597857255" fill="#81BFFC" ><title >c11 → n2 {:type "broadcast", :message 5, :msg_id 2}</title></rect><use xlink:href="#ahead" x="480.41648597857255" y="0" /><text text-anchor="middle" x="240.20824298928628" y="-4" transform="" filter="url(#glow)" style="fill: #fff" >broadcast {:message 5}</text><text text-anchor="middle" x="240.20824298928628" y="-4" transform="" >broadcast {:message 5}</text></g><g transform="translate(1000.0 1930.0) rotate(177.6140559696112) " ><rect x="0" y="-2.5" height="5" width="476.41648597857255" fill="#81BFFC" ><title >n2 → c11 {:in_reply_to 2, :msg_id 4, :type "broadcast_ok"}</title></rect><use xlink:href="#ahead" x="480.41648597857255" y="0" /><text text-anchor="middle" x="240.20824298928628" y="-4" transform="rotate(180 240.20824298928628 0)" filter="url(#glow)" style="fill: #fff" >broadcast_ok {}</text><text text-anchor="middle" x="240.20824298928628" y="-4" transform="rotate(180 240.20824298928628 0)" >broadcast_ok {}</text></g><g transform="translate(600.0 1970.0) rotate(2.3859440303888126) " ><rect x="0" y="-2.5" height="5" width="476.41648597857255" fill="#81BFFC" ><title >c12 → n3 {:type "broadcast", :message 6, :msg_id 2}</title></rect><use xlink:href="#ahead" x="480.41648597857255" y="0" /><text text-anchor="middle" x="240.20824298928628" y="-4" transform="" filter="url(#glow)" style="fill: #fff" >broadcast {:message 6}</text><text text-anchor="middle" x="240.20824298928628" y="-4" transform="" >broadcast {:message 6}</text></g><g transform="translate(1080.0 2010.0) rotate(175.2363583092738) " ><rect x="0" y="-2.5" height="5" width="236.8318915758459" fill="#000" ><title >n3 → n0 {:data_id "c12_2", :message 6, :msg_id 6, :seen_nodes ["n3" "n0"], :type "gossip"}</title></rect><use xlink:href="#ahead" x="240.8318915758459" y="0" /><text text-anchor="middle" x="120.41594578792295" y="-4" transform="rotate(180 120.41594578792295 0)" filter="url(#glow)" style="fill: #fff" >gossip {:data_id "c12_2", :message 6, :seen_nod…</text><text text-anchor="middle" x="120.41594578792295" y="-4" transform="rotate(180 120.41594578792295 0)" >gossip {:data_id "c12_2", :message 6, :seen_nod…</text></g><g transform="translate(1080.0 2050.0) rotate(14.036243467926479) " ><rect x="0" y="-2.5" height="5" width="78.46211251235322" fill="#000" ><title >n3 → n4 {:data_id "c12_2", :message 6, :msg_id 7, :seen_nodes ["n3" "n0" "n4"], :type "gossip"}</title></rect><use xlink:href="#ahead" x="82.46211251235322" y="0" /><text text-anchor="middle" x="41.23105625617661" y="-4" transform="" filter="url(#glow)" style="fill: #fff" >gossip {:data_id "c12_2", :message 6, :seen_nod…</text><text text-anchor="middle" x="41.23105625617661" y="-4" transform="" >gossip {:data_id "c12_2", :message 6, :seen_nod…</text></g><g transform="translate(1080.0 2090.0) rotate(177.6140559696112) " ><rect x="0" y="-2.5" height="5" width="476.41648597857255" fill="#81BFFC" ><title >n3 → c12 {:in_reply_to 2, :msg_id 13, :type "broadcast_ok"}</title></rect><use xlink:href="#ahead" x="480.41648597857255" y="0" /><text text-anchor="middle" x="240.20824298928628" y="-4" transform="rotate(180 240.20824298928628 0)" filter="url(#glow)" style="fill: #fff" >broadcast_ok {}</text><text text-anchor="middle" x="240.20824298928628" y="-4" transform="rotate(180 240.20824298928628 0)" >broadcast_ok {}</text></g><g transform="translate(840.0 2150.0) rotate(9.462322208025618) " ><rect x="0" y="-2.5" height="5" width="239.3105012119288" fill="#000" ><title >n0 → n3 {:already_seen false, :in_reply_to 6, :msg_id 14, :seen_nodes ["n0" "n3" "n1"], :type "gossip_ok"}</title></rect><use xlink:href="#ahead" x="243.3105012119288" y="0" /><text text-anchor="middle" x="121.6552506059644" y="-4" transform="" filter="url(#glow)" style="fill: #fff" >gossip_ok {:already_seen false, :seen_nodes ["n…</text><text text-anchor="middle" x="121.6552506059644" y="-4" transform="" >gossip_ok {:already_seen false, :seen_nodes ["n…</text></g><g transform="translate(1160.0 2210.0) rotate(165.96375653207352) " ><rect x="0" y="-2.5" height="5" width="78.46211251235322" fill="#000" ><title >n4 → n3 {:already_seen false, :in_reply_to 7, :msg_id 12, :seen_nodes ["n4" "n3" "n0" "n1"], :type "gossip_ok"}</title></rect><use xlink:href="#ahead" x="82.46211251235322" y="0" /><text text-anchor="middle" x="41.23105625617661" y="-4" transform="rotate(180 41.23105625617661 0)" filter="url(#glow)" style="fill: #fff" >gossip_ok {:already_seen false, :seen_nodes ["n…</text><text text-anchor="middle" x="41.23105625617661" y="-4" transform="rotate(180 41.23105625617661 0)" >gossip_ok {:already_seen false, :seen_nodes ["n…</text></g><g transform="translate(680.0 2250.0) rotate(2.3859440303888126) " ><rect x="0" y="-2.5" height="5" width="476.41648597857255" fill="#81BFFC" ><title >c13 → n4 {:type "read", :msg_id 2}</title></rect><use xlink:href="#ahead" x="480.41648597857255" y="0" /><text text-anchor="middle" x="240.20824298928628" y="-4" transform="" filter="url(#glow)" style="fill: #fff" >read {}</text><text text-anchor="middle" x="240.20824298928628" y="-4" transform="" >read {}</text></g><g transform="translate(1160.0 2290.0) rotate(177.6140559696112) " ><rect x="0" y="-2.5" height="5" width="476.41648597857255" fill="#81BFFC" ><title >n4 → c13 {:in_reply_to 2, :messages [0 1 2 3 6], :msg_id 13, :type "read_ok"}</title></rect><use xlink:href="#ahead" x="480.41648597857255" y="0" /><text text-anchor="middle" x="240.20824298928628" y="-4" transform="rotate(180 240.20824298928628 0)" filter="url(#glow)" style="fill: #fff" >read_ok {:messages [0 1 2 3 6]}</text><text text-anchor="middle" x="240.20824298928628" y="-4" transform="rotate(180 240.20824298928628 0)" >read_ok {:messages [0 1 2 3 6]}</text></g><g transform="translate(600.0 2350.0) rotate(4.763641690726177) " ><rect x="0" y="-2.5" height="5" width="477.6637831516918" fill="#81BFFC" ><title >c12 → n3 {:type "read", :msg_id 3}</title></rect><use xlink:href="#ahead" x="481.6637831516918" y="0" /><text text-anchor="middle" x="240.8318915758459" y="-4" transform="" filter="url(#glow)" style="fill: #fff" >read {}</text><text text-anchor="middle" x="240.8318915758459" y="-4" transform="" >read {}</text></g><g transform="translate(440.0 2330.0) rotate(11.309932474020215) " ><rect x="0" y="-2.5" height="5" width="403.9215610874228" fill="#81BFFC" ><title >c10 → n0 {:type "read", :msg_id 4}</title></rect><use xlink:href="#ahead" x="407.9215610874228" y="0" /><text text-anchor="middle" x="203.9607805437114" y="-4" transform="" filter="url(#glow)" style="fill: #fff" >read {}</text><text text-anchor="middle" x="203.9607805437114" y="-4" transform="" >read {}</text></g><g transform="translate(520.0 2370.0) rotate(7.125016348901799) " ><rect x="0" y="-2.5" height="5" width="479.735464897913" fill="#81BFFC" ><title >c11 → n2 {:type "read", :msg_id 3}</title></rect><use xlink:href="#ahead" x="483.735464897913" y="0" /><text text-anchor="middle" x="241.8677324489565" y="-4" transform="" filter="url(#glow)" style="fill: #fff" >read {}</text><text text-anchor="middle" x="241.8677324489565" y="-4" transform="" >read {}</text></g><g transform="translate(680.0 2470.0) rotate(2.3859440303888126) " ><rect x="0" y="-2.5" height="5" width="476.41648597857255" fill="#81BFFC" ><title >c13 → n4 {:type "read", :msg_id 3}</title></rect><use xlink:href="#ahead" x="480.41648597857255" y="0" /><text text-anchor="middle" x="240.20824298928628" y="-4" transform="" filter="url(#glow)" style="fill: #fff" >read {}</text><text text-anchor="middle" x="240.20824298928628" y="-4" transform="" >read {}</text></g><g transform="translate(760.0 2450.0) rotate(20.556045219583464) " ><rect x="0" y="-2.5" height="5" width="166.88007490635061" fill="#81BFFC" ><title >c14 → n1 {:type "read", :msg_id 2}</title></rect><use xlink:href="#ahead" x="170.88007490635061" y="0" /><text text-anchor="middle" x="85.44003745317531" y="-4" transform="" filter="url(#glow)" style="fill: #fff" >read {}</text><text text-anchor="middle" x="85.44003745317531" y="-4" transform="" >read {}</text></g><g transform="translate(1000.0 2570.0) rotate(172.8749836510982) " ><rect x="0" y="-2.5" height="5" width="479.735464897913" fill="#81BFFC" ><title >n2 → c11 {:in_reply_to 3, :messages [5], :msg_id 5, :type "read_ok"}</title></rect><use xlink:href="#ahead" x="483.735464897913" y="0" /><text text-anchor="middle" x="241.8677324489565" y="-4" transform="rotate(180 241.8677324489565 0)" filter="url(#glow)" style="fill: #fff" >read_ok {:messages [5]}</text><text text-anchor="middle" x="241.8677324489565" y="-4" transform="rotate(180 241.8677324489565 0)" >read_ok {:messages [5]}</text></g><g transform="translate(1160.0 2530.0) rotate(165.96375653207352) " ><rect x="0" y="-2.5" height="5" width="490.77267507411926" fill="#81BFFC" ><title >n4 → c13 {:in_reply_to 3, :messages [0 1 2 3 6], :msg_id 14, :type "read_ok"}</title></rect><use xlink:href="#ahead" x="494.77267507411926" y="0" /><text text-anchor="middle" x="247.38633753705963" y="-4" transform="rotate(180 247.38633753705963 0)" filter="url(#glow)" style="fill: #fff" >read_ok {:messages [0 1 2 3 6]}</text><text text-anchor="middle" x="247.38633753705963" y="-4" transform="rotate(180 247.38633753705963 0)" >read_ok {:messages [0 1 2 3 6]}</text></g><g transform="translate(840.0 2610.0) rotate(171.46923439005187) " ><rect x="0" y="-2.5" height="5" width="400.4749683231337" fill="#81BFFC" ><title >n0 → c10 {:in_reply_to 4, :messages [6 0 1 2 3], :msg_id 15, :type "read_ok"}</title></rect><use xlink:href="#ahead" x="404.4749683231337" y="0" /><text text-anchor="middle" x="202.23748416156684" y="-4" transform="rotate(180 202.23748416156684 0)" filter="url(#glow)" style="fill: #fff" >read_ok {:messages [6 0 1 2 3]}</text><text text-anchor="middle" x="202.23748416156684" y="-4" transform="rotate(180 202.23748416156684 0)" >read_ok {:messages [6 0 1 2 3]}</text></g><g transform="translate(920.0 2590.0) rotate(147.99461679191648) " ><rect x="0" y="-2.5" height="5" width="184.67962264113208" fill="#81BFFC" ><title >n1 → c14 {:in_reply_to 2, :messages [4], :msg_id 6, :type "read_ok"}</title></rect><use xlink:href="#ahead" x="188.67962264113208" y="0" /><text text-anchor="middle" x="94.33981132056604" y="-4" transform="rotate(180 94.33981132056604 0)" filter="url(#glow)" style="fill: #fff" >read_ok {:messages [4]}</text><text text-anchor="middle" x="94.33981132056604" y="-4" transform="rotate(180 94.33981132056604 0)" >read_ok {:messages [4]}</text></g><g transform="translate(1080.0 2550.0) rotate(161.56505117707798) " ><rect x="0" y="-2.5" height="5" width="501.9644256269407" fill="#81BFFC" ><title >n3 → c12 {:in_reply_to 3, :messages [2 3 6 0 1], :msg_id 14, :type "read_ok"}</title></rect><use xlink:href="#ahead" x="505.9644256269407" y="0" /><text text-anchor="middle" x="252.98221281347034" y="-4" transform="rotate(180 252.98221281347034 0)" filter="url(#glow)" style="fill: #fff" >read_ok {:messages [2 3 6 0 1]}</text><text text-anchor="middle" x="252.98221281347034" y="-4" transform="rotate(180 252.98221281347034 0)" >read_ok {:messages [2 3 6 0 1]}</text></g></g></svg>