<?xml version="1.0" encoding="UTF-8"?><svg xmlns:svg="http://www.w3.org/2000/svg" xmlns="http://www.w3.org/2000/svg" xmlns:xlink="http://www.w3.org/1999/xlink" version="2.0" width="1200" height="1300" ><style >
svg {
  font-family: Helvetica, Arial, sans-serif;
  font-size: 11px;
}
rect {
  stroke-linecap: butt;
  stroke-width: 3;
  stroke: #fff;
/*  stroke-opacity: 1; */
}
rect:hover {
  stroke: #fff;
/*  stroke-opacity: 1; /*
}
polygon { fill: #000; }</style><defs ><polygon id="ahead" points="0 0, -12 4, -12 -4" /><filter id="glow" x="0" y="0" ><feGaussianBlur in="SourceAlpha" stdDeviation="2" result="blurred" /><feFlood flood-color="#fff" /><feComposite operator="in" in2="blurred" /><feComponentTransfer ><feFuncA type="linear" slope="10" intercept="0" /></feComponentTransfer><feMerge ><feMergeNode /><feMergeNode in="SourceGraphic" /></feMerge></filter></defs><g ><text x="40.0" y="20.0" text-anchor="middle" alignment-baseline="middle" fill="#000" >c5</text><text x="40.0" y="1020.0" text-anchor="middle" alignment-baseline="middle" fill="#aaa" >c5</text><text x="120.0" y="20.0" text-anchor="middle" alignment-baseline="middle" fill="#000" >c6</text><text x="120.0" y="1020.0" text-anchor="middle" alignment-baseline="middle" fill="#aaa" >c6</text><text x="200.0" y="20.0" text-anchor="middle" alignment-baseline="middle" fill="#000" >c7</text><text x="200.0" y="1020.0" text-anchor="middle" alignment-baseline="middle" fill="#aaa" >c7</text><text x="280.0" y="20.0" text-anchor="middle" alignment-baseline="middle" fill="#000" >c8</text><text x="280.0" y="1020.0" text-anchor="middle" alignment-baseline="middle" fill="#aaa" >c8</text><text x="360.0" y="20.0" text-anchor="middle" alignment-baseline="middle" fill="#000" >c9</text><text x="360.0" y="1020.0" text-anchor="middle" alignment-baseline="middle" fill="#aaa" >c9</text><text x="440.0" y="20.0" text-anchor="middle" alignment-baseline="middle" fill="#000" >c10</text><text x="440.0" y="1020.0" text-anchor="middle" alignment-baseline="middle" fill="#aaa" >c10</text><text x="520.0" y="20.0" text-anchor="middle" alignment-baseline="middle" fill="#000" >c11</text><text x="520.0" y="1020.0" text-anchor="middle" alignment-baseline="middle" fill="#aaa" >c11</text><text x="600.0" y="20.0" text-anchor="middle" alignment-baseline="middle" fill="#000" >c12</text><text x="600.0" y="1020.0" text-anchor="middle" alignment-baseline="middle" fill="#aaa" >c12</text><text x="680.0" y="20.0" text-anchor="middle" alignment-baseline="middle" fill="#000" >c13</text><text x="680.0" y="1020.0" text-anchor="middle" alignment-baseline="middle" fill="#aaa" >c13</text><text x="760.0" y="20.0" text-anchor="middle" alignment-baseline="middle" fill="#000" >c14</text><text x="760.0" y="1020.0" text-anchor="middle" alignment-baseline="middle" fill="#aaa" >c14</text><text x="840.0" y="20.0" text-anchor="middle" alignment-baseline="middle" fill="#000" >n0</text><text x="840.0" y="1020.0" text-anchor="middle" alignment-baseline="middle" fill="#aaa" >n0</text><text x="920.0" y="20.0" text-anchor="middle" alignment-baseline="middle" fill="#000" >n1</text><text x="920.0" y="1020.0" text-anchor="middle" alignment-baseline="middle" fill="#aaa" >n1</text><text x="1000.0" y="20.0" text-anchor="middle" alignment-baseline="middle" fill="#000" >n2</text><text x="1000.0" y="1020.0" text-anchor="middle" alignment-baseline="middle" fill="#aaa" >n2</text><text x="1080.0" y="20.0" text-anchor="middle" alignment-baseline="middle" fill="#000" >n3</text><text x="1080.0" y="1020.0" text-anchor="middle" alignment-baseline="middle" fill="#aaa" >n3</text><text x="1160.0" y="20.0" text-anchor="middle" alignment-baseline="middle" fill="#000" >n4</text><text x="1160.0" y="1020.0" text-anchor="middle" alignment-baseline="middle" fill="#aaa" >n4</text></g><g ><line stroke="#ccc" x1="40.0" y1="30.0" x2="40.0" y2="1210.0" /><line stroke="#ccc" x1="120.0" y1="30.0" x2="120.0" y2="1210.0" /><line stroke="#ccc" x1="200.0" y1="30.0" x2="200.0" y2="1210.0" /><line stroke="#ccc" x1="280.0" y1="30.0" x2="280.0" y2="1210.0" /><line stroke="#ccc" x1="360.0" y1="30.0" x2="360.0" y2="1210.0" /><line stroke="#ccc" x1="440.0" y1="30.0" x2="440.0" y2="1210.0" /><line stroke="#ccc" x1="520.0" y1="30.0" x2="520.0" y2="1210.0" /><line stroke="#ccc" x1="600.0" y1="30.0" x2="600.0" y2="1210.0" /><line stroke="#ccc" x1="680.0" y1="30.0" x2="680.0" y2="1210.0" /><line stroke="#ccc" x1="760.0" y1="30.0" x2="760.0" y2="1210.0" /><line stroke="#ccc" x1="840.0" y1="30.0" x2="840.0" y2="1210.0" /><line stroke="#ccc" x1="920.0" y1="30.0" x2="920.0" y2="1210.0" /><line stroke="#ccc" x1="1000.0" y1="30.0" x2="1000.0" y2="1210.0" /><line stroke="#ccc" x1="1080.0" y1="30.0" x2="1080.0" y2="1210.0" /><line stroke="#ccc" x1="1160.0" y1="30.0" x2="1160.0" y2="1210.0" /></g><g ><g transform="translate(40.0 90.0) rotate(4.289153328819018) " ><rect x="0" y="-2.5" height="5" width="798.2468448052632" fill="#81BFFC" ><title >c5 → n0 {:type "topology", :topology {"n0" ["n3" "n1"], "n1" ["n4" "n2" "n0"], "n2" ["n1"], "n3" ["n0" "n4"], "n4" ["n1" "n3"]}, :msg_id 1}</title></rect><use xlink:href="#ahead" x="802.2468448052632" y="0" /><text text-anchor="middle" x="401.1234224026316" y="-4" transform="" filter="url(#glow)" style="fill: #fff" >topology {:topology {"n0" ["n3" "n1"], "n1" ["n…</text><text text-anchor="middle" x="401.1234224026316" y="-4" transform="" >topology {:topology {"n0" ["n3" "n1"], "n1" ["n…</text></g><g transform="translate(200.0 50.0) rotate(8.530765609948133) " ><rect x="0" y="-2.5" height="5" width="804.9499366462674" fill="#81BFFC" ><title >c7 → n2 {:type "topology", :topology {"n0" ["n3" "n1"], "n1" ["n4" "n2" "n0"], "n2" ["n1"], "n3" ["n0" "n4"], "n4" ["n1" "n3"]}, :msg_id 1}</title></rect><use xlink:href="#ahead" x="808.9499366462674" y="0" /><text text-anchor="middle" x="404.4749683231337" y="-4" transform="" filter="url(#glow)" style="fill: #fff" >topology {:topology {"n0" ["n3" "n1"], "n1" ["n…</text><text text-anchor="middle" x="404.4749683231337" y="-4" transform="" >topology {:topology {"n0" ["n3" "n1"], "n1" ["n…</text></g><g transform="translate(120.0 70.0) rotate(8.530765609948133) " ><rect x="0" y="-2.5" height="5" width="804.9499366462674" fill="#81BFFC" ><title >c6 → n1 {:type "topology", :topology {"n0" ["n3" "n1"], "n1" ["n4" "n2" "n0"], "n2" ["n1"], "n3" ["n0" "n4"], "n4" ["n1" "n3"]}, :msg_id 1}</title></rect><use xlink:href="#ahead" x="808.9499366462674" y="0" /><text text-anchor="middle" x="404.4749683231337" y="-4" transform="" filter="url(#glow)" style="fill: #fff" >topology {:topology {"n0" ["n3" "n1"], "n1" ["n…</text><text text-anchor="middle" x="404.4749683231337" y="-4" transform="" >topology {:topology {"n0" ["n3" "n1"], "n1" ["n…</text></g><g transform="translate(360.0 110.0) rotate(7.125016348901799) " ><rect x="0" y="-2.5" height="5" width="802.2257748298549" fill="#81BFFC" ><title >c9 → n4 {:type "topology", :topology {"n0" ["n3" "n1"], "n1" ["n4" "n2" "n0"], "n2" ["n1"], "n3" ["n0" "n4"], "n4" ["n1" "n3"]}, :msg_id 1}</title></rect><use xlink:href="#ahead" x="806.2257748298549" y="0" /><text text-anchor="middle" x="403.11288741492746" y="-4" transform="" filter="url(#glow)" style="fill: #fff" >topology {:topology {"n0" ["n3" "n1"], "n1" ["n…</text><text text-anchor="middle" x="403.11288741492746" y="-4" transform="" >topology {:topology {"n0" ["n3" "n1"], "n1" ["n…</text></g><g transform="translate(280.0 130.0) rotate(7.125016348901799) " ><rect x="0" y="-2.5" height="5" width="802.2257748298549" fill="#81BFFC" ><title >c8 → n3 {:type "topology", :topology {"n0" ["n3" "n1"], "n1" ["n4" "n2" "n0"], "n2" ["n1"], "n3" ["n0" "n4"], "n4" ["n1" "n3"]}, :msg_id 1}</title></rect><use xlink:href="#ahead" x="806.2257748298549" y="0" /><text text-anchor="middle" x="403.11288741492746" y="-4" transform="" filter="url(#glow)" style="fill: #fff" >topology {:topology {"n0" ["n3" "n1"], "n1" ["n…</text><text text-anchor="middle" x="403.11288741492746" y="-4" transform="" >topology {:topology {"n0" ["n3" "n1"], "n1" ["n…</text></g><g transform="translate(1080.0 310.0) rotate(177.13759477388828) " ><rect x="0" y="-2.5" height="5" width="796.9993757800314" fill="#81BFFC" ><title >n3 → c8 {:in_reply_to 1, :msg_id 1, :type "topology_ok"}</title></rect><use xlink:href="#ahead" x="800.9993757800314" y="0" /><text text-anchor="middle" x="400.4996878900157" y="-4" transform="rotate(180 400.4996878900157 0)" filter="url(#glow)" style="fill: #fff" >topology_ok {}</text><text text-anchor="middle" x="400.4996878900157" y="-4" transform="rotate(180 400.4996878900157 0)" >topology_ok {}</text></g><g transform="translate(840.0 250.0) rotate(171.46923439005187) " ><rect x="0" y="-2.5" height="5" width="804.9499366462674" fill="#81BFFC" ><title >n0 → c5 {:in_reply_to 1, :msg_id 1, :type "topology_ok"}</title></rect><use xlink:href="#ahead" x="808.9499366462674" y="0" /><text text-anchor="middle" x="404.4749683231337" y="-4" transform="rotate(180 404.4749683231337 0)" filter="url(#glow)" style="fill: #fff" >topology_ok {}</text><text text-anchor="middle" x="404.4749683231337" y="-4" transform="rotate(180 404.4749683231337 0)" >topology_ok {}</text></g><g transform="translate(920.0 290.0) rotate(172.8749836510982) " ><rect x="0" y="-2.5" height="5" width="802.2257748298549" fill="#81BFFC" ><title >n1 → c6 {:in_reply_to 1, :msg_id 1, :type "topology_ok"}</title></rect><use xlink:href="#ahead" x="806.2257748298549" y="0" /><text text-anchor="middle" x="403.11288741492746" y="-4" transform="rotate(180 403.11288741492746 0)" filter="url(#glow)" style="fill: #fff" >topology_ok {}</text><text text-anchor="middle" x="403.11288741492746" y="-4" transform="rotate(180 403.11288741492746 0)" >topology_ok {}</text></g><g transform="translate(1000.0 270.0) rotate(170.0737544933483) " ><rect x="0" y="-2.5" height="5" width="808.1576201698781" fill="#81BFFC" ><title >n2 → c7 {:in_reply_to 1, :msg_id 1, :type "topology_ok"}</title></rect><use xlink:href="#ahead" x="812.1576201698781" y="0" /><text text-anchor="middle" x="406.07881008493905" y="-4" transform="rotate(180 406.07881008493905 0)" filter="url(#glow)" style="fill: #fff" >topology_ok {}</text><text text-anchor="middle" x="406.07881008493905" y="-4" transform="rotate(180 406.07881008493905 0)" >topology_ok {}</text></g><g transform="translate(1160.0 330.0) rotate(172.8749836510982) " ><rect x="0" y="-2.5" height="5" width="802.2257748298549" fill="#81BFFC" ><title >n4 → c9 {:in_reply_to 1, :msg_id 1, :type "topology_ok"}</title></rect><use xlink:href="#ahead" x="806.2257748298549" y="0" /><text text-anchor="middle" x="403.11288741492746" y="-4" transform="rotate(180 403.11288741492746 0)" filter="url(#glow)" style="fill: #fff" >topology_ok {}</text><text text-anchor="middle" x="403.11288741492746" y="-4" transform="rotate(180 403.11288741492746 0)" >topology_ok {}</text></g><g transform="translate(440.0 450.0) rotate(2.3859440303888126) " ><rect x="0" y="-2.5" height="5" width="476.41648597857255" fill="#81BFFC" ><title >c10 → n1 {:type "broadcast", :message 0, :msg_id 1}</title></rect><use xlink:href="#ahead" x="480.41648597857255" y="0" /><text text-anchor="middle" x="240.20824298928628" y="-4" transform="" filter="url(#glow)" style="fill: #fff" >broadcast {:message 0}</text><text text-anchor="middle" x="240.20824298928628" y="-4" transform="" >broadcast {:message 0}</text></g><g transform="translate(920.0 490.0) rotate(4.763641690726177) " ><rect x="0" y="-2.5" height="5" width="236.8318915758459" fill="#000" ><title >n1 → n4 {:data_id "c10_1", :message 0, :msg_id 1, :seen_nodes ["n1" "n4"], :type "gossip"}</title></rect><use xlink:href="#ahead" x="240.8318915758459" y="0" /><text text-anchor="middle" x="120.41594578792295" y="-4" transform="" filter="url(#glow)" style="fill: #fff" >gossip {:data_id "c10_1", :message 0, :seen_nod…</text><text text-anchor="middle" x="120.41594578792295" y="-4" transform="" >gossip {:data_id "c10_1", :message 0, :seen_nod…</text></g><g transform="translate(920.0 530.0) rotate(14.036243467926479) " ><rect x="0" y="-2.5" height="5" width="78.46211251235322" fill="#000" ><title >n1 → n2 {:data_id "c10_1", :message 0, :msg_id 2, :seen_nodes ["n1" "n4" "n2"], :type "gossip"}</title></rect><use xlink:href="#ahead" x="82.46211251235322" y="0" /><text text-anchor="middle" x="41.23105625617661" y="-4" transform="" filter="url(#glow)" style="fill: #fff" >gossip {:data_id "c10_1", :message 0, :seen_nod…</text><text text-anchor="middle" x="41.23105625617661" y="-4" transform="" >gossip {:data_id "c10_1", :message 0, :seen_nod…</text></g><g transform="translate(920.0 570.0) rotate(165.96375653207352) " ><rect x="0" y="-2.5" height="5" width="78.46211251235322" fill="#000" ><title >n1 → n0 {:data_id "c10_1", :message 0, :msg_id 3, :seen_nodes ["n1" "n4" "n2" "n0"], :type "gossip"}</title></rect><use xlink:href="#ahead" x="82.46211251235322" y="0" /><text text-anchor="middle" x="41.23105625617661" y="-4" transform="rotate(180 41.23105625617661 0)" filter="url(#glow)" style="fill: #fff" >gossip {:data_id "c10_1", :message 0, :seen_nod…</text><text text-anchor="middle" x="41.23105625617661" y="-4" transform="rotate(180 41.23105625617661 0)" >gossip {:data_id "c10_1", :message 0, :seen_nod…</text></g><g transform="translate(920.0 610.0) rotate(177.6140559696112) " ><rect x="0" y="-2.5" height="5" width="476.41648597857255" fill="#81BFFC" ><title >n1 → c10 {:in_reply_to 1, :msg_id 5, :type "broadcast_ok"}</title></rect><use xlink:href="#ahead" x="480.41648597857255" y="0" /><text text-anchor="middle" x="240.20824298928628" y="-4" transform="rotate(180 240.20824298928628 0)" filter="url(#glow)" style="fill: #fff" >broadcast_ok {}</text><text text-anchor="middle" x="240.20824298928628" y="-4" transform="rotate(180 240.20824298928628 0)" >broadcast_ok {}</text></g><g transform="translate(1000.0 650.0) rotate(153.43494882292202) " ><rect x="0" y="-2.5" height="5" width="85.44271909999159" fill="#000" ><title >n2 → n1 {:already_seen false, :in_reply_to 2, :msg_id 2, :seen_nodes ["n2" "n1" "n4"], :type "gossip_ok"}</title></rect><use xlink:href="#ahead" x="89.44271909999159" y="0" /><text text-anchor="middle" x="44.721359549995796" y="-4" transform="rotate(180 44.721359549995796 0)" filter="url(#glow)" style="fill: #fff" >gossip_ok {:already_seen false, :seen_nodes ["n…</text><text text-anchor="middle" x="44.721359549995796" y="-4" transform="rotate(180 44.721359549995796 0)" >gossip_ok {:already_seen false, :seen_nodes ["n…</text></g><g transform="translate(1160.0 730.0) rotate(175.2363583092738) " ><rect x="0" y="-2.5" height="5" width="236.8318915758459" fill="#000" ><title >n4 → n1 {:already_seen false, :in_reply_to 1, :msg_id 3, :seen_nodes ["n4" "n1" "n3"], :type "gossip_ok"}</title></rect><use xlink:href="#ahead" x="240.8318915758459" y="0" /><text text-anchor="middle" x="120.41594578792295" y="-4" transform="rotate(180 120.41594578792295 0)" filter="url(#glow)" style="fill: #fff" >gossip_ok {:already_seen false, :seen_nodes ["n…</text><text text-anchor="middle" x="120.41594578792295" y="-4" transform="rotate(180 120.41594578792295 0)" >gossip_ok {:already_seen false, :seen_nodes ["n…</text></g><g transform="translate(840.0 770.0) rotate(14.036243467926479) " ><rect x="0" y="-2.5" height="5" width="78.46211251235322" fill="#000" ><title >n0 → n1 {:already_seen false, :in_reply_to 3, :msg_id 3, :seen_nodes ["n0" "n1" "n4" "n2" "n3"], :type "gossip_ok"}</title></rect><use xlink:href="#ahead" x="82.46211251235322" y="0" /><text text-anchor="middle" x="41.23105625617661" y="-4" transform="" filter="url(#glow)" style="fill: #fff" >gossip_ok {:already_seen false, :seen_nodes ["n…</text><text text-anchor="middle" x="41.23105625617661" y="-4" transform="" >gossip_ok {:already_seen false, :seen_nodes ["n…</text></g><g transform="translate(440.0 830.0) rotate(2.3859440303888126) " ><rect x="0" y="-2.5" height="5" width="476.41648597857255" fill="#81BFFC" ><title >c10 → n1 {:type "read", :msg_id 2}</title></rect><use xlink:href="#ahead" x="480.41648597857255" y="0" /><text text-anchor="middle" x="240.20824298928628" y="-4" transform="" filter="url(#glow)" style="fill: #fff" >read {}</text><text text-anchor="middle" x="240.20824298928628" y="-4" transform="" >read {}</text></g><g transform="translate(600.0 870.0) rotate(14.036243467926479) " ><rect x="0" y="-2.5" height="5" width="243.38633753705963" fill="#81BFFC" ><title >c12 → n0 {:type "read", :msg_id 1}</title></rect><use xlink:href="#ahead" x="247.38633753705963" y="0" /><text text-anchor="middle" x="123.69316876852982" y="-4" transform="" filter="url(#glow)" style="fill: #fff" >read {}</text><text text-anchor="middle" x="123.69316876852982" y="-4" transform="" >read {}</text></g><g transform="translate(520.0 810.0) rotate(14.036243467926479) " ><rect x="0" y="-2.5" height="5" width="573.2347875864725" fill="#81BFFC" ><title >c11 → n3 {:type "read", :msg_id 1}</title></rect><use xlink:href="#ahead" x="577.2347875864725" y="0" /><text text-anchor="middle" x="288.61739379323626" y="-4" transform="" filter="url(#glow)" style="fill: #fff" >read {}</text><text text-anchor="middle" x="288.61739379323626" y="-4" transform="" >read {}</text></g><g transform="translate(680.0 890.0) rotate(11.768288932020646) " ><rect x="0" y="-2.5" height="5" width="486.3060268852505" fill="#81BFFC" ><title >c13 → n4 {:type "read", :msg_id 1}</title></rect><use xlink:href="#ahead" x="490.3060268852505" y="0" /><text text-anchor="middle" x="245.15301344262525" y="-4" transform="" filter="url(#glow)" style="fill: #fff" >read {}</text><text text-anchor="middle" x="245.15301344262525" y="-4" transform="" >read {}</text></g><g transform="translate(920.0 970.0) rotate(175.2363583092738) " ><rect x="0" y="-2.5" height="5" width="477.6637831516918" fill="#81BFFC" ><title >n1 → c10 {:in_reply_to 2, :messages [0], :msg_id 6, :type "read_ok"}</title></rect><use xlink:href="#ahead" x="481.6637831516918" y="0" /><text text-anchor="middle" x="240.8318915758459" y="-4" transform="rotate(180 240.8318915758459 0)" filter="url(#glow)" style="fill: #fff" >read_ok {:messages [0]}</text><text text-anchor="middle" x="240.8318915758459" y="-4" transform="rotate(180 240.8318915758459 0)" >read_ok {:messages [0]}</text></g><g transform="translate(760.0 910.0) rotate(26.565051177077986) " ><rect x="0" y="-2.5" height="5" width="264.32815729997475" fill="#81BFFC" ><title >c14 → n2 {:type "read", :msg_id 1}</title></rect><use xlink:href="#ahead" x="268.32815729997475" y="0" /><text text-anchor="middle" x="134.16407864998737" y="-4" transform="" filter="url(#glow)" style="fill: #fff" >read {}</text><text text-anchor="middle" x="134.16407864998737" y="-4" transform="" >read {}</text></g><g transform="translate(840.0 1050.0) rotate(175.2363583092738) " ><rect x="0" y="-2.5" height="5" width="236.8318915758459" fill="#81BFFC" ><title >n0 → c12 {:in_reply_to 1, :messages [0], :msg_id 4, :type "read_ok"}</title></rect><use xlink:href="#ahead" x="240.8318915758459" y="0" /><text text-anchor="middle" x="120.41594578792295" y="-4" transform="rotate(180 120.41594578792295 0)" filter="url(#glow)" style="fill: #fff" >read_ok {:messages [0]}</text><text text-anchor="middle" x="120.41594578792295" y="-4" transform="rotate(180 120.41594578792295 0)" >read_ok {:messages [0]}</text></g><g transform="translate(1080.0 1090.0) rotate(175.91438322002512) " ><rect x="0" y="-2.5" height="5" width="557.426753904728" fill="#81BFFC" ><title >n3 → c11 {:in_reply_to 1, :messages [], :msg_id 2, :type "read_ok"}</title></rect><use xlink:href="#ahead" x="561.426753904728" y="0" /><text text-anchor="middle" x="280.713376952364" y="-4" transform="rotate(180 280.713376952364 0)" filter="url(#glow)" style="fill: #fff" >read_ok {:messages []}</text><text text-anchor="middle" x="280.713376952364" y="-4" transform="rotate(180 280.713376952364 0)" >read_ok {:messages []}</text></g><g transform="translate(1160.0 1150.0) rotate(177.6140559696112) " ><rect x="0" y="-2.5" height="5" width="476.41648597857255" fill="#81BFFC" ><title >n4 → c13 {:in_reply_to 1, :messages [0], :msg_id 4, :type "read_ok"}</title></rect><use xlink:href="#ahead" x="480.41648597857255" y="0" /><text text-anchor="middle" x="240.20824298928628" y="-4" transform="rotate(180 240.20824298928628 0)" filter="url(#glow)" style="fill: #fff" >read_ok {:messages [0]}</text><text text-anchor="middle" x="240.20824298928628" y="-4" transform="rotate(180 240.20824298928628 0)" >read_ok {:messages [0]}</text></g><g transform="translate(1000.0 1110.0) rotate(161.56505117707798) " ><rect x="0" y="-2.5" height="5" width="248.98221281347034" fill="#81BFFC" ><title >n2 → c14 {:in_reply_to 1, :messages [0], :msg_id 3, :type "read_ok"}</title></rect><use xlink:href="#ahead" x="252.98221281347034" y="0" /><text text-anchor="middle" x="126.49110640673517" y="-4" transform="rotate(180 126.49110640673517 0)" filter="url(#glow)" style="fill: #fff" >read_ok {:messages [0]}</text><text text-anchor="middle" x="126.49110640673517" y="-4" transform="rotate(180 126.49110640673517 0)" >read_ok {:messages [0]}</text></g></g></svg>