<?xml version="1.0" encoding="UTF-8"?><svg xmlns:svg="http://www.w3.org/2000/svg" xmlns="http://www.w3.org/2000/svg" xmlns:xlink="http://www.w3.org/1999/xlink" version="2.0" width="1200" height="540" ><style >
svg {
  font-family: Helvetica, Arial, sans-serif;
  font-size: 11px;
}
rect {
  stroke-linecap: butt;
  stroke-width: 3;
  stroke: #fff;
/*  stroke-opacity: 1; */
}
rect:hover {
  stroke: #fff;
/*  stroke-opacity: 1; /*
}
polygon { fill: #000; }</style><defs ><polygon id="ahead" points="0 0, -12 4, -12 -4" /><filter id="glow" x="0" y="0" ><feGaussianBlur in="SourceAlpha" stdDeviation="2" result="blurred" /><feFlood flood-color="#fff" /><feComposite operator="in" in2="blurred" /><feComponentTransfer ><feFuncA type="linear" slope="10" intercept="0" /></feComponentTransfer><feMerge ><feMergeNode /><feMergeNode in="SourceGraphic" /></feMerge></filter></defs><g ><text x="100.0" y="20.0" text-anchor="middle" alignment-baseline="middle" fill="#000" >c1</text><text x="300.0" y="20.0" text-anchor="middle" alignment-baseline="middle" fill="#000" >c2</text><text x="500.0" y="20.0" text-anchor="middle" alignment-baseline="middle" fill="#000" >c3</text><text x="700.0" y="20.0" text-anchor="middle" alignment-baseline="middle" fill="#000" >c4</text><text x="900.0" y="20.0" text-anchor="middle" alignment-baseline="middle" fill="#000" >c5</text><text x="1100.0" y="20.0" text-anchor="middle" alignment-baseline="middle" fill="#000" >n0</text></g><g ><line stroke="#ccc" x1="100.0" y1="30.0" x2="100.0" y2="450.0" /><line stroke="#ccc" x1="300.0" y1="30.0" x2="300.0" y2="450.0" /><line stroke="#ccc" x1="500.0" y1="30.0" x2="500.0" y2="450.0" /><line stroke="#ccc" x1="700.0" y1="30.0" x2="700.0" y2="450.0" /><line stroke="#ccc" x1="900.0" y1="30.0" x2="900.0" y2="450.0" /><line stroke="#ccc" x1="1100.0" y1="30.0" x2="1100.0" y2="450.0" /></g><g ><g transform="translate(100.0 50.0) rotate(1.1457628381751035) " ><rect x="0" y="-2.5" height="5" width="996.199980003999" fill="#81BFFC" ><title >c1 → n0 {:type "topology", :topology {"n0" []}, :msg_id 1}</title></rect><use xlink:href="#ahead" x="1000.199980003999" y="0" /><text text-anchor="middle" x="500.0999900019995" y="-4" transform="" filter="url(#glow)" style="fill: #fff" >topology {:topology {"n0" []}}</text><text text-anchor="middle" x="500.0999900019995" y="-4" transform="" >topology {:topology {"n0" []}}</text></g><g transform="translate(1100.0 90.0) rotate(178.8542371618249) " ><rect x="0" y="-2.5" height="5" width="996.199980003999" fill="#81BFFC" ><title >n0 → c1 {:in_reply_to 1, :type "topology_ok"}</title></rect><use xlink:href="#ahead" x="1000.199980003999" y="0" /><text text-anchor="middle" x="500.0999900019995" y="-4" transform="rotate(180 500.0999900019995 0)" filter="url(#glow)" style="fill: #fff" >topology_ok {}</text><text text-anchor="middle" x="500.0999900019995" y="-4" transform="rotate(180 500.0999900019995 0)" >topology_ok {}</text></g><g transform="translate(300.0 130.0) rotate(1.4320961841646465) " ><rect x="0" y="-2.5" height="5" width="796.2499609497023" fill="#81BFFC" ><title >c2 → n0 {:type "broadcast", :message 0, :msg_id 1}</title></rect><use xlink:href="#ahead" x="800.2499609497023" y="0" /><text text-anchor="middle" x="400.12498047485116" y="-4" transform="" filter="url(#glow)" style="fill: #fff" >broadcast {:message 0}</text><text text-anchor="middle" x="400.12498047485116" y="-4" transform="" >broadcast {:message 0}</text></g><g transform="translate(1100.0 170.0) rotate(178.56790381583536) " ><rect x="0" y="-2.5" height="5" width="796.2499609497023" fill="#81BFFC" ><title >n0 → c2 {:in_reply_to 1, :message 0, :msg_id 1, :type "broadcast_ok"}</title></rect><use xlink:href="#ahead" x="800.2499609497023" y="0" /><text text-anchor="middle" x="400.12498047485116" y="-4" transform="rotate(180 400.12498047485116 0)" filter="url(#glow)" style="fill: #fff" >broadcast_ok {:message 0}</text><text text-anchor="middle" x="400.12498047485116" y="-4" transform="rotate(180 400.12498047485116 0)" >broadcast_ok {:message 0}</text></g><g transform="translate(500.0 210.0) rotate(1.9091524329963763) " ><rect x="0" y="-2.5" height="5" width="596.3332407921454" fill="#81BFFC" ><title >c3 → n0 {:type "broadcast", :message 1, :msg_id 1}</title></rect><use xlink:href="#ahead" x="600.3332407921454" y="0" /><text text-anchor="middle" x="300.1666203960727" y="-4" transform="" filter="url(#glow)" style="fill: #fff" >broadcast {:message 1}</text><text text-anchor="middle" x="300.1666203960727" y="-4" transform="" >broadcast {:message 1}</text></g><g transform="translate(1100.0 250.0) rotate(178.0908475670036) " ><rect x="0" y="-2.5" height="5" width="596.3332407921454" fill="#81BFFC" ><title >n0 → c3 {:in_reply_to 1, :message 1, :msg_id 1, :type "broadcast_ok"}</title></rect><use xlink:href="#ahead" x="600.3332407921454" y="0" /><text text-anchor="middle" x="300.1666203960727" y="-4" transform="rotate(180 300.1666203960727 0)" filter="url(#glow)" style="fill: #fff" >broadcast_ok {:message 1}</text><text text-anchor="middle" x="300.1666203960727" y="-4" transform="rotate(180 300.1666203960727 0)" >broadcast_ok {:message 1}</text></g><g transform="translate(700.0 290.0) rotate(2.862405226111748) " ><rect x="0" y="-2.5" height="5" width="396.4996878900157" fill="#81BFFC" ><title >c4 → n0 {:type "read", :msg_id 1}</title></rect><use xlink:href="#ahead" x="400.4996878900157" y="0" /><text text-anchor="middle" x="200.24984394500785" y="-4" transform="" filter="url(#glow)" style="fill: #fff" >read {}</text><text text-anchor="middle" x="200.24984394500785" y="-4" transform="" >read {}</text></g><g transform="translate(1100.0 330.0) rotate(177.13759477388828) " ><rect x="0" y="-2.5" height="5" width="396.4996878900157" fill="#81BFFC" ><title >n0 → c4 {:in_reply_to 1, :messages {}, :msg_id 1, :type "read_ok"}</title></rect><use xlink:href="#ahead" x="400.4996878900157" y="0" /><text text-anchor="middle" x="200.24984394500785" y="-4" transform="rotate(180 200.24984394500785 0)" filter="url(#glow)" style="fill: #fff" >read_ok {:messages {}}</text><text text-anchor="middle" x="200.24984394500785" y="-4" transform="rotate(180 200.24984394500785 0)" >read_ok {:messages {}}</text></g><g transform="translate(900.0 370.0) rotate(5.710593137499643) " ><rect x="0" y="-2.5" height="5" width="196.9975124224178" fill="#81BFFC" ><title >c5 → n0 {:type "read", :msg_id 1}</title></rect><use xlink:href="#ahead" x="200.9975124224178" y="0" /><text text-anchor="middle" x="100.4987562112089" y="-4" transform="" filter="url(#glow)" style="fill: #fff" >read {}</text><text text-anchor="middle" x="100.4987562112089" y="-4" transform="" >read {}</text></g><g transform="translate(1100.0 410.0) rotate(174.28940686250036) " ><rect x="0" y="-2.5" height="5" width="196.9975124224178" fill="#81BFFC" ><title >n0 → c5 {:in_reply_to 1, :messages {}, :msg_id 1, :type "read_ok"}</title></rect><use xlink:href="#ahead" x="200.9975124224178" y="0" /><text text-anchor="middle" x="100.4987562112089" y="-4" transform="rotate(180 100.4987562112089 0)" filter="url(#glow)" style="fill: #fff" >read_ok {:messages {}}</text><text text-anchor="middle" x="100.4987562112089" y="-4" transform="rotate(180 100.4987562112089 0)" >read_ok {:messages {}}</text></g></g></svg>