<?xml version="1.0" encoding="UTF-8"?><svg xmlns:svg="http://www.w3.org/2000/svg" xmlns="http://www.w3.org/2000/svg" xmlns:xlink="http://www.w3.org/1999/xlink" version="2.0" width="1200" height="860" ><style >
svg {
  font-family: Helvetica, Arial, sans-serif;
  font-size: 11px;
}
rect {
  stroke-linecap: butt;
  stroke-width: 3;
  stroke: #fff;
/*  stroke-opacity: 1; */
}
rect:hover {
  stroke: #fff;
/*  stroke-opacity: 1; /*
}
polygon { fill: #000; }</style><defs ><polygon id="ahead" points="0 0, -12 4, -12 -4" /><filter id="glow" x="0" y="0" ><feGaussianBlur in="SourceAlpha" stdDeviation="2" result="blurred" /><feFlood flood-color="#fff" /><feComposite operator="in" in2="blurred" /><feComponentTransfer ><feFuncA type="linear" slope="10" intercept="0" /></feComponentTransfer><feMerge ><feMergeNode /><feMergeNode in="SourceGraphic" /></feMerge></filter></defs><g ><text x="100.0" y="20.0" text-anchor="middle" alignment-baseline="middle" fill="#000" >c2</text><text x="300.0" y="20.0" text-anchor="middle" alignment-baseline="middle" fill="#000" >c3</text><text x="500.0" y="20.0" text-anchor="middle" alignment-baseline="middle" fill="#000" >c4</text><text x="700.0" y="20.0" text-anchor="middle" alignment-baseline="middle" fill="#000" >c5</text><text x="900.0" y="20.0" text-anchor="middle" alignment-baseline="middle" fill="#000" >n0</text><text x="1100.0" y="20.0" text-anchor="middle" alignment-baseline="middle" fill="#000" >n1</text></g><g ><line stroke="#ccc" x1="100.0" y1="30.0" x2="100.0" y2="770.0" /><line stroke="#ccc" x1="300.0" y1="30.0" x2="300.0" y2="770.0" /><line stroke="#ccc" x1="500.0" y1="30.0" x2="500.0" y2="770.0" /><line stroke="#ccc" x1="700.0" y1="30.0" x2="700.0" y2="770.0" /><line stroke="#ccc" x1="900.0" y1="30.0" x2="900.0" y2="770.0" /><line stroke="#ccc" x1="1100.0" y1="30.0" x2="1100.0" y2="770.0" /></g><g ><g transform="translate(300.0 70.0) rotate(1.4320961841646465) " ><rect x="0" y="-2.5" height="5" width="796.2499609497023" fill="#81BFFC" ><title >c3 → n1 {:type "topology", :topology {"n0" ["n1"], "n1" ["n0"]}, :msg_id 1}</title></rect><use xlink:href="#ahead" x="800.2499609497023" y="0" /><text text-anchor="middle" x="400.12498047485116" y="-4" transform="" filter="url(#glow)" style="fill: #fff" >topology {:topology {"n0" ["n1"], "n1" ["n0"]}}</text><text text-anchor="middle" x="400.12498047485116" y="-4" transform="" >topology {:topology {"n0" ["n1"], "n1" ["n0"]}}</text></g><g transform="translate(100.0 50.0) rotate(4.289153328819018) " ><rect x="0" y="-2.5" height="5" width="798.2468448052632" fill="#81BFFC" ><title >c2 → n0 {:type "topology", :topology {"n0" ["n1"], "n1" ["n0"]}, :msg_id 1}</title></rect><use xlink:href="#ahead" x="802.2468448052632" y="0" /><text text-anchor="middle" x="401.1234224026316" y="-4" transform="" filter="url(#glow)" style="fill: #fff" >topology {:topology {"n0" ["n1"], "n1" ["n0"]}}</text><text text-anchor="middle" x="401.1234224026316" y="-4" transform="" >topology {:topology {"n0" ["n1"], "n1" ["n0"]}}</text></g><g transform="translate(900.0 150.0) rotate(178.56790381583536) " ><rect x="0" y="-2.5" height="5" width="796.2499609497023" fill="#81BFFC" ><title >n0 → c2 {:in_reply_to 1, :type "topology_ok"}</title></rect><use xlink:href="#ahead" x="800.2499609497023" y="0" /><text text-anchor="middle" x="400.12498047485116" y="-4" transform="rotate(180 400.12498047485116 0)" filter="url(#glow)" style="fill: #fff" >topology_ok {}</text><text text-anchor="middle" x="400.12498047485116" y="-4" transform="rotate(180 400.12498047485116 0)" >topology_ok {}</text></g><g transform="translate(1100.0 130.0) rotate(175.71084667118097) " ><rect x="0" y="-2.5" height="5" width="798.2468448052632" fill="#81BFFC" ><title >n1 → c3 {:in_reply_to 1, :type "topology_ok"}</title></rect><use xlink:href="#ahead" x="802.2468448052632" y="0" /><text text-anchor="middle" x="401.1234224026316" y="-4" transform="rotate(180 401.1234224026316 0)" filter="url(#glow)" style="fill: #fff" >topology_ok {}</text><text text-anchor="middle" x="401.1234224026316" y="-4" transform="rotate(180 401.1234224026316 0)" >topology_ok {}</text></g><g transform="translate(500.0 210.0) rotate(2.862405226111748) " ><rect x="0" y="-2.5" height="5" width="396.4996878900157" fill="#81BFFC" ><title >c4 → n0 {:type "broadcast", :message 0, :msg_id 1}</title></rect><use xlink:href="#ahead" x="400.4996878900157" y="0" /><text text-anchor="middle" x="200.24984394500785" y="-4" transform="" filter="url(#glow)" style="fill: #fff" >broadcast {:message 0}</text><text text-anchor="middle" x="200.24984394500785" y="-4" transform="" >broadcast {:message 0}</text></g><g transform="translate(900.0 250.0) rotate(5.710593137499643) " ><rect x="0" y="-2.5" height="5" width="196.9975124224178" fill="#000" ><title >n0 → n1 {:message 0, :msg_id 1, :seen_nodes ["n0" "n1"], :type "gossip"}</title></rect><use xlink:href="#ahead" x="200.9975124224178" y="0" /><text text-anchor="middle" x="100.4987562112089" y="-4" transform="" filter="url(#glow)" style="fill: #fff" >gossip {:message 0, :seen_nodes ["n0" "n1"]}</text><text text-anchor="middle" x="100.4987562112089" y="-4" transform="" >gossip {:message 0, :seen_nodes ["n0" "n1"]}</text></g><g transform="translate(900.0 290.0) rotate(177.13759477388828) " ><rect x="0" y="-2.5" height="5" width="396.4996878900157" fill="#81BFFC" ><title >n0 → c4 {:in_reply_to 1, :type "broadcast_ok"}</title></rect><use xlink:href="#ahead" x="400.4996878900157" y="0" /><text text-anchor="middle" x="200.24984394500785" y="-4" transform="rotate(180 200.24984394500785 0)" filter="url(#glow)" style="fill: #fff" >broadcast_ok {}</text><text text-anchor="middle" x="200.24984394500785" y="-4" transform="rotate(180 200.24984394500785 0)" >broadcast_ok {}</text></g><g transform="translate(1100.0 330.0) rotate(174.28940686250036) " ><rect x="0" y="-2.5" height="5" width="196.9975124224178" fill="#000" ><title >n1 → n0 {:already_seen false, :in_reply_to 1, :seen_nodes ["n1" "n0"], :type "gossip_ok"}</title></rect><use xlink:href="#ahead" x="200.9975124224178" y="0" /><text text-anchor="middle" x="100.4987562112089" y="-4" transform="rotate(180 100.4987562112089 0)" filter="url(#glow)" style="fill: #fff" >gossip_ok {:already_seen false, :seen_nodes ["n…</text><text text-anchor="middle" x="100.4987562112089" y="-4" transform="rotate(180 100.4987562112089 0)" >gossip_ok {:already_seen false, :seen_nodes ["n…</text></g><g transform="translate(700.0 370.0) rotate(2.862405226111748) " ><rect x="0" y="-2.5" height="5" width="396.4996878900157" fill="#81BFFC" ><title >c5 → n1 {:type "broadcast", :message 1, :msg_id 1}</title></rect><use xlink:href="#ahead" x="400.4996878900157" y="0" /><text text-anchor="middle" x="200.24984394500785" y="-4" transform="" filter="url(#glow)" style="fill: #fff" >broadcast {:message 1}</text><text text-anchor="middle" x="200.24984394500785" y="-4" transform="" >broadcast {:message 1}</text></g><g transform="translate(1100.0 410.0) rotate(177.13759477388828) " ><rect x="0" y="-2.5" height="5" width="396.4996878900157" fill="#81BFFC" ><title >n1 → c5 {:in_reply_to 1, :type "broadcast_ok"}</title></rect><use xlink:href="#ahead" x="400.4996878900157" y="0" /><text text-anchor="middle" x="200.24984394500785" y="-4" transform="rotate(180 200.24984394500785 0)" filter="url(#glow)" style="fill: #fff" >broadcast_ok {}</text><text text-anchor="middle" x="200.24984394500785" y="-4" transform="rotate(180 200.24984394500785 0)" >broadcast_ok {}</text></g><g transform="translate(500.0 450.0) rotate(2.862405226111748) " ><rect x="0" y="-2.5" height="5" width="396.4996878900157" fill="#81BFFC" ><title >c4 → n0 {:type "broadcast", :message 2, :msg_id 2}</title></rect><use xlink:href="#ahead" x="400.4996878900157" y="0" /><text text-anchor="middle" x="200.24984394500785" y="-4" transform="" filter="url(#glow)" style="fill: #fff" >broadcast {:message 2}</text><text text-anchor="middle" x="200.24984394500785" y="-4" transform="" >broadcast {:message 2}</text></g><g transform="translate(900.0 490.0) rotate(5.710593137499643) " ><rect x="0" y="-2.5" height="5" width="196.9975124224178" fill="#000" ><title >n0 → n1 {:message 2, :msg_id 2, :seen_nodes ["n0" "n1"], :type "gossip"}</title></rect><use xlink:href="#ahead" x="200.9975124224178" y="0" /><text text-anchor="middle" x="100.4987562112089" y="-4" transform="" filter="url(#glow)" style="fill: #fff" >gossip {:message 2, :seen_nodes ["n0" "n1"]}</text><text text-anchor="middle" x="100.4987562112089" y="-4" transform="" >gossip {:message 2, :seen_nodes ["n0" "n1"]}</text></g><g transform="translate(900.0 530.0) rotate(177.13759477388828) " ><rect x="0" y="-2.5" height="5" width="396.4996878900157" fill="#81BFFC" ><title >n0 → c4 {:in_reply_to 2, :type "broadcast_ok"}</title></rect><use xlink:href="#ahead" x="400.4996878900157" y="0" /><text text-anchor="middle" x="200.24984394500785" y="-4" transform="rotate(180 200.24984394500785 0)" filter="url(#glow)" style="fill: #fff" >broadcast_ok {}</text><text text-anchor="middle" x="200.24984394500785" y="-4" transform="rotate(180 200.24984394500785 0)" >broadcast_ok {}</text></g><g transform="translate(1100.0 570.0) rotate(174.28940686250036) " ><rect x="0" y="-2.5" height="5" width="196.9975124224178" fill="#000" ><title >n1 → n0 {:already_seen false, :in_reply_to 2, :seen_nodes ["n1" "n0"], :type "gossip_ok"}</title></rect><use xlink:href="#ahead" x="200.9975124224178" y="0" /><text text-anchor="middle" x="100.4987562112089" y="-4" transform="rotate(180 100.4987562112089 0)" filter="url(#glow)" style="fill: #fff" >gossip_ok {:already_seen false, :seen_nodes ["n…</text><text text-anchor="middle" x="100.4987562112089" y="-4" transform="rotate(180 100.4987562112089 0)" >gossip_ok {:already_seen false, :seen_nodes ["n…</text></g><g transform="translate(500.0 610.0) rotate(5.710593137499643) " ><rect x="0" y="-2.5" height="5" width="397.9950248448356" fill="#81BFFC" ><title >c4 → n0 {:type "read", :msg_id 3}</title></rect><use xlink:href="#ahead" x="401.9950248448356" y="0" /><text text-anchor="middle" x="200.9975124224178" y="-4" transform="" filter="url(#glow)" style="fill: #fff" >read {}</text><text text-anchor="middle" x="200.9975124224178" y="-4" transform="" >read {}</text></g><g transform="translate(700.0 630.0) rotate(5.710593137499643) " ><rect x="0" y="-2.5" height="5" width="397.9950248448356" fill="#81BFFC" ><title >c5 → n1 {:type "read", :msg_id 2}</title></rect><use xlink:href="#ahead" x="401.9950248448356" y="0" /><text text-anchor="middle" x="200.9975124224178" y="-4" transform="" filter="url(#glow)" style="fill: #fff" >read {}</text><text text-anchor="middle" x="200.9975124224178" y="-4" transform="" >read {}</text></g><g transform="translate(1100.0 690.0) rotate(174.28940686250036) " ><rect x="0" y="-2.5" height="5" width="397.9950248448356" fill="#81BFFC" ><title >n1 → c5 {:in_reply_to 2, :messages [0 2], :msg_id 2, :type "read_ok"}</title></rect><use xlink:href="#ahead" x="401.9950248448356" y="0" /><text text-anchor="middle" x="200.9975124224178" y="-4" transform="rotate(180 200.9975124224178 0)" filter="url(#glow)" style="fill: #fff" >read_ok {:messages [0 2]}</text><text text-anchor="middle" x="200.9975124224178" y="-4" transform="rotate(180 200.9975124224178 0)" >read_ok {:messages [0 2]}</text></g><g transform="translate(900.0 710.0) rotate(174.28940686250036) " ><rect x="0" y="-2.5" height="5" width="397.9950248448356" fill="#81BFFC" ><title >n0 → c4 {:in_reply_to 3, :messages [0 2], :msg_id 3, :type "read_ok"}</title></rect><use xlink:href="#ahead" x="401.9950248448356" y="0" /><text text-anchor="middle" x="200.9975124224178" y="-4" transform="rotate(180 200.9975124224178 0)" filter="url(#glow)" style="fill: #fff" >read_ok {:messages [0 2]}</text><text text-anchor="middle" x="200.9975124224178" y="-4" transform="rotate(180 200.9975124224178 0)" >read_ok {:messages [0 2]}</text></g></g></svg>