<?xml version="1.0" encoding="UTF-8"?><svg xmlns:svg="http://www.w3.org/2000/svg" xmlns="http://www.w3.org/2000/svg" xmlns:xlink="http://www.w3.org/1999/xlink" version="2.0" width="1200" height="300" ><style >
svg {
  font-family: Helvetica, Arial, sans-serif;
  font-size: 11px;
}
rect {
  stroke-linecap: butt;
  stroke-width: 3;
  stroke: #fff;
/*  stroke-opacity: 1; */
}
rect:hover {
  stroke: #fff;
/*  stroke-opacity: 1; /*
}
polygon { fill: #000; }</style><defs ><polygon id="ahead" points="0 0, -12 4, -12 -4" /><filter id="glow" x="0" y="0" ><feGaussianBlur in="SourceAlpha" stdDeviation="2" result="blurred" /><feFlood flood-color="#fff" /><feComposite operator="in" in2="blurred" /><feComponentTransfer ><feFuncA type="linear" slope="10" intercept="0" /></feComponentTransfer><feMerge ><feMergeNode /><feMergeNode in="SourceGraphic" /></feMerge></filter></defs><g ><text x="150.0" y="20.0" text-anchor="middle" alignment-baseline="middle" fill="#000" >c1</text><text x="450.0" y="20.0" text-anchor="middle" alignment-baseline="middle" fill="#000" >c2</text><text x="750.0" y="20.0" text-anchor="middle" alignment-baseline="middle" fill="#000" >c3</text><text x="1050.0" y="20.0" text-anchor="middle" alignment-baseline="middle" fill="#000" >n0</text></g><g ><line stroke="#ccc" x1="150.0" y1="30.0" x2="150.0" y2="210.0" /><line stroke="#ccc" x1="450.0" y1="30.0" x2="450.0" y2="210.0" /><line stroke="#ccc" x1="750.0" y1="30.0" x2="750.0" y2="210.0" /><line stroke="#ccc" x1="1050.0" y1="30.0" x2="1050.0" y2="210.0" /></g><g ><g transform="translate(150.0 50.0) rotate(1.2730300200567113) " ><rect x="0" y="-2.5" height="5" width="896.222194794152" fill="#81BFFC" ><title >c1 → n0 {:type "topology", :topology {"n0" []}, :msg_id 1}</title></rect><use xlink:href="#ahead" x="900.222194794152" y="0" /><text text-anchor="middle" x="450.111097397076" y="-4" transform="" filter="url(#glow)" style="fill: #fff" >topology {:topology {"n0" []}}</text><text text-anchor="middle" x="450.111097397076" y="-4" transform="" >topology {:topology {"n0" []}}</text></g><g transform="translate(1050.0 90.0) rotate(178.7269699799433) " ><rect x="0" y="-2.5" height="5" width="896.222194794152" fill="#81BFFC" ><title >n0 → c1 {:in_reply_to 1, :type "topology_ok"}</title></rect><use xlink:href="#ahead" x="900.222194794152" y="0" /><text text-anchor="middle" x="450.111097397076" y="-4" transform="rotate(180 450.111097397076 0)" filter="url(#glow)" style="fill: #fff" >topology_ok {}</text><text text-anchor="middle" x="450.111097397076" y="-4" transform="rotate(180 450.111097397076 0)" >topology_ok {}</text></g><g transform="translate(450.0 130.0) rotate(1.9091524329963763) " ><rect x="0" y="-2.5" height="5" width="596.3332407921454" fill="#81BFFC" ><title >c2 → n0 {:type "broadcast", :message 0, :msg_id 1}</title></rect><use xlink:href="#ahead" x="600.3332407921454" y="0" /><text text-anchor="middle" x="300.1666203960727" y="-4" transform="" filter="url(#glow)" style="fill: #fff" >broadcast {:message 0}</text><text text-anchor="middle" x="300.1666203960727" y="-4" transform="" >broadcast {:message 0}</text></g><g transform="translate(750.0 170.0) rotate(3.8140748342903543) " ><rect x="0" y="-2.5" height="5" width="296.66592756745814" fill="#81BFFC" ><title >c3 → n0 {:type "read", :msg_id 1}</title></rect><use xlink:href="#ahead" x="300.66592756745814" y="0" /><text text-anchor="middle" x="150.33296378372907" y="-4" transform="" filter="url(#glow)" style="fill: #fff" >read {}</text><text text-anchor="middle" x="150.33296378372907" y="-4" transform="" >read {}</text></g></g></svg>